<?xml version="1.0" encoding="UTF-8"?>
<!-- Generator: visioncortex VTracer 0.6.2 -->
<svg version="1.1" xmlns="http://www.w3.org/2000/svg" width="1280" height="1280">
<path d="M0 0 C422.4 0 844.8 0 1280 0 C1280 422.4 1280 844.8 1280 1280 C857.6 1280 435.2 1280 0 1280 C0 857.6 0 435.2 0 0 Z " fill="#000102" transform="translate(0,0)"/>
<path d="M0 0 C0.84638031 -0.00067474 1.69276062 -0.00134949 2.56478882 -0.00204468 C28.75500368 0.03074941 54.13530761 2.61218406 79.75 8.25 C81.23941379 8.56070965 82.72898145 8.87068331 84.21875 9.1796875 C134.40332605 19.93566529 182.3567158 42.72079761 222.75 74.25 C223.87449794 75.10742968 224.99952502 75.96416571 226.125 76.8203125 C233.38322897 82.38378752 240.20059828 88.26859998 246.85546875 94.5390625 C249.1751534 96.71161466 251.52133366 98.81230088 253.9375 100.875 C261.47451706 107.41026163 268.31041233 114.64439646 274.75 122.25 C275.99910156 123.70019531 275.99910156 123.70019531 277.2734375 125.1796875 C293.39110881 143.95355104 306.97485009 164.08170022 319.75 185.25 C320.35642334 186.23758301 320.35642334 186.23758301 320.97509766 187.24511719 C360.9536535 252.60044491 376.14898921 337.82907013 365.75 413.25 C365.62109375 414.22098633 365.4921875 415.19197266 365.359375 416.19238281 C362.10006763 440.11660424 356.21237103 463.3101187 348.75 486.25 C348.36328125 487.44109375 348.36328125 487.44109375 347.96875 488.65625 C344.85349308 498.13182314 341.14261079 507.17139182 336.765625 516.140625 C335.64026904 518.47790276 334.55306926 520.8309128 333.46875 523.1875 C322.23708084 547.46560157 308.21549049 570.15542143 291.75 591.25 C290.89257032 592.37449794 290.03583429 593.49952502 289.1796875 594.625 C283.61962984 601.8787706 277.73859935 608.69235272 271.47265625 615.34375 C269.23699345 617.73016768 267.0685421 620.14593536 264.9375 622.625 C259.35538844 629.05656332 253.20280197 634.71003343 246.75 640.25 C245.72993992 641.14523112 244.71045192 642.04111434 243.69140625 642.9375 C236.00985648 649.65385215 228.07018505 655.89761562 219.85546875 661.94921875 C217.71810081 663.50144625 217.71810081 663.50144625 215.75 665.25 C216.72271851 665.25616333 216.72271851 665.25616333 217.71508789 665.26245117 C235.99129787 665.46471113 252.39391113 666.40449497 266.26953125 679.65625 C282.65070119 696.74964472 284.22040122 712.78667409 284.1484375 735.3125 C284.15046217 737.55346776 284.15337688 739.79443487 284.15713501 742.03540039 C284.16153981 746.7153963 284.15518687 751.39521958 284.14111328 756.07519531 C284.12402273 762.04651129 284.13387382 768.01742259 284.15183067 773.98872375 C284.16271842 778.61123656 284.15919932 783.23365486 284.1514473 787.85617065 C284.14945907 790.05679371 284.15185561 792.2574256 284.15888596 794.45803833 C284.20979213 814.86680066 282.11166876 830.35469545 267.45703125 845.734375 C256.22774221 856.1696739 243.62370265 859.4177427 228.5691967 859.38142776 C227.37008746 859.38450672 227.37008746 859.38450672 226.14675379 859.38764787 C223.46939211 859.39330005 220.79208216 859.39186282 218.11471558 859.39044189 C216.17515762 859.39302655 214.2356002 859.39603999 212.29604352 859.3994453 C206.96681301 859.40750671 201.63759598 859.40930439 196.3083601 859.41004276 C190.56039253 859.4118948 184.81243192 859.41944288 179.06446838 859.42617798 C166.49622999 859.43975553 153.92799478 859.44578506 141.35975027 859.45018864 C133.51127778 859.45295192 125.66280653 859.45718943 117.81433487 859.46169281 C96.08166252 859.47388451 74.34899149 859.48421952 52.61631584 859.4875679 C51.21153933 859.48778953 49.80676282 859.48801132 48.40198631 859.48823325 C46.99386224 859.48845389 45.58573816 859.48867437 44.17761409 859.4888947 C41.35278439 859.48933725 38.5279547 859.48978436 35.703125 859.49023438 C35.00273416 859.49034377 34.30234333 859.49045316 33.58072853 859.49056586 C10.87401004 859.49419595 -11.83267651 859.51011508 -34.53938277 859.53342474 C-58.55859718 859.55803659 -82.57779256 859.57173465 -106.59702003 859.57293582 C-119.68542661 859.57385232 -132.77379137 859.57959854 -145.86218643 859.59775543 C-157.00715504 859.61316191 -168.1520689 859.6182736 -179.29704614 859.61001733 C-184.98164455 859.60611286 -190.66613272 859.60703067 -196.35071754 859.62107468 C-201.55950659 859.63382536 -206.76810268 859.63260571 -211.9768915 859.62048396 C-213.85644537 859.61852901 -215.73601296 859.62159602 -217.61554755 859.63032833 C-237.29093163 859.71591773 -252.11619642 856.53026909 -267.25 843.25 C-277.2302289 832.26681564 -281.38455287 820.01416025 -281.42700195 805.46533203 C-281.43357315 804.48407852 -281.44014435 803.50282501 -281.44691467 802.49183655 C-281.46660748 799.247161 -281.47830507 796.00253179 -281.48828125 792.7578125 C-281.49235678 791.6447662 -281.4964323 790.53171989 -281.50063133 789.38494492 C-281.52148092 783.48677508 -281.53578412 777.58862838 -281.54516602 771.69042969 C-281.55619212 765.63062161 -281.59055153 759.57118459 -281.63033772 753.51150703 C-281.65663034 748.82540254 -281.66486933 744.13938449 -281.66844749 739.45321274 C-281.67328549 737.22155137 -281.68481873 734.98989313 -281.70348549 732.7583046 C-281.84037851 715.29942365 -281.10354419 700.72939634 -270.25 686.25 C-269.81171875 685.60675781 -269.3734375 684.96351563 -268.921875 684.30078125 C-261.86580808 674.8431012 -247.69498712 667.97583139 -236.25 666.25 C-228.25710126 665.7142864 -220.2483692 665.92704435 -212.25 666.25 C-212.25 665.59 -212.25 664.93 -212.25 664.25 C-212.78238281 664.01667969 -213.31476563 663.78335938 -213.86328125 663.54296875 C-216.96922273 661.86037197 -219.66852536 659.73725672 -222.4375 657.5625 C-223.61062325 656.64706642 -224.78380042 655.73170194 -225.95703125 654.81640625 C-226.52502441 654.37184082 -227.09301758 653.92727539 -227.67822266 653.46923828 C-228.96404063 652.47182061 -230.2668467 651.49633715 -231.57421875 650.52734375 C-243.0348132 641.9919296 -253.05634113 631.53832736 -263.17886353 621.49636841 C-264.58231178 620.10482608 -265.98970452 618.71726551 -267.3972168 617.32983398 C-273.45112253 611.28362413 -278.94796396 604.96166263 -284.25 598.25 C-285.22776982 597.03507998 -286.20561985 595.8202245 -287.18359375 594.60546875 C-300.55293518 577.76108254 -311.86964505 560.08141316 -322.25 541.25 C-322.59562988 540.62867188 -322.94125977 540.00734375 -323.29736328 539.3671875 C-368.66892426 457.62446144 -377.41681756 356.95280357 -352.12109375 267.6171875 C-339.41837678 223.9379025 -319.90740348 181.91932511 -291.65869141 146.04394531 C-290.23939529 144.23649508 -288.84252969 142.41347021 -287.44921875 140.5859375 C-282.18285131 133.72111628 -276.6461283 127.22664646 -270.73046875 120.9140625 C-268.69923951 118.73249031 -266.74198434 116.5205312 -264.8125 114.25 C-257.47803003 105.83023853 -249.50413477 98.21332108 -240.76953125 91.265625 C-238.51558559 89.46246847 -236.34337439 87.60575296 -234.1875 85.6875 C-170.6678254 29.82079825 -84.04526613 0.06081348 0 0 Z " fill="#16779F" transform="translate(638.25,139.75)"/>
<path d="M0 0 C0.84638031 -0.00067474 1.69276062 -0.00134949 2.56478882 -0.00204468 C28.75500368 0.03074941 54.13530761 2.61218406 79.75 8.25 C81.23941379 8.56070965 82.72898145 8.87068331 84.21875 9.1796875 C134.40332605 19.93566529 182.3567158 42.72079761 222.75 74.25 C223.87449794 75.10742968 224.99952502 75.96416571 226.125 76.8203125 C233.38322897 82.38378752 240.20059828 88.26859998 246.85546875 94.5390625 C249.1751534 96.71161466 251.52133366 98.81230088 253.9375 100.875 C261.47451706 107.41026163 268.31041233 114.64439646 274.75 122.25 C275.99910156 123.70019531 275.99910156 123.70019531 277.2734375 125.1796875 C293.39110881 143.95355104 306.97485009 164.08170022 319.75 185.25 C320.35642334 186.23758301 320.35642334 186.23758301 320.97509766 187.24511719 C360.9536535 252.60044491 376.14898921 337.82907013 365.75 413.25 C365.62109375 414.22098633 365.4921875 415.19197266 365.359375 416.19238281 C362.10006763 440.11660424 356.21237103 463.3101187 348.75 486.25 C348.36328125 487.44109375 348.36328125 487.44109375 347.96875 488.65625 C344.85349308 498.13182314 341.14261079 507.17139182 336.765625 516.140625 C335.64026904 518.47790276 334.55306926 520.8309128 333.46875 523.1875 C322.23708084 547.46560157 308.21549049 570.15542143 291.75 591.25 C290.89257032 592.37449794 290.03583429 593.49952502 289.1796875 594.625 C283.61962984 601.8787706 277.73859935 608.69235272 271.47265625 615.34375 C269.23699345 617.73016768 267.0685421 620.14593536 264.9375 622.625 C259.35538844 629.05656332 253.20280197 634.71003343 246.75 640.25 C245.72993992 641.14523112 244.71045192 642.04111434 243.69140625 642.9375 C236.00985648 649.65385215 228.07018505 655.89761562 219.85546875 661.94921875 C217.71810081 663.50144625 217.71810081 663.50144625 215.75 665.25 C216.72271851 665.25616333 216.72271851 665.25616333 217.71508789 665.26245117 C235.99129787 665.46471113 252.39391113 666.40449497 266.26953125 679.65625 C282.65070119 696.74964472 284.22040122 712.78667409 284.1484375 735.3125 C284.15046217 737.55346776 284.15337688 739.79443487 284.15713501 742.03540039 C284.16153981 746.7153963 284.15518687 751.39521958 284.14111328 756.07519531 C284.12402273 762.04651129 284.13387382 768.01742259 284.15183067 773.98872375 C284.16271842 778.61123656 284.15919932 783.23365486 284.1514473 787.85617065 C284.14945907 790.05679371 284.15185561 792.2574256 284.15888596 794.45803833 C284.20979213 814.86680066 282.11166876 830.35469545 267.45703125 845.734375 C256.22774221 856.1696739 243.62370265 859.4177427 228.5691967 859.38142776 C227.37008746 859.38450672 227.37008746 859.38450672 226.14675379 859.38764787 C223.46939211 859.39330005 220.79208216 859.39186282 218.11471558 859.39044189 C216.17515762 859.39302655 214.2356002 859.39603999 212.29604352 859.3994453 C206.96681301 859.40750671 201.63759598 859.40930439 196.3083601 859.41004276 C190.56039253 859.4118948 184.81243192 859.41944288 179.06446838 859.42617798 C166.49622999 859.43975553 153.92799478 859.44578506 141.35975027 859.45018864 C133.51127778 859.45295192 125.66280653 859.45718943 117.81433487 859.46169281 C96.08166252 859.47388451 74.34899149 859.48421952 52.61631584 859.4875679 C51.21153933 859.48778953 49.80676282 859.48801132 48.40198631 859.48823325 C46.99386224 859.48845389 45.58573816 859.48867437 44.17761409 859.4888947 C41.35278439 859.48933725 38.5279547 859.48978436 35.703125 859.49023438 C35.00273416 859.49034377 34.30234333 859.49045316 33.58072853 859.49056586 C10.87401004 859.49419595 -11.83267651 859.51011508 -34.53938277 859.53342474 C-58.55859718 859.55803659 -82.57779256 859.57173465 -106.59702003 859.57293582 C-119.68542661 859.57385232 -132.77379137 859.57959854 -145.86218643 859.59775543 C-157.00715504 859.61316191 -168.1520689 859.6182736 -179.29704614 859.61001733 C-184.98164455 859.60611286 -190.66613272 859.60703067 -196.35071754 859.62107468 C-201.55950659 859.63382536 -206.76810268 859.63260571 -211.9768915 859.62048396 C-213.85644537 859.61852901 -215.73601296 859.62159602 -217.61554755 859.63032833 C-237.29093163 859.71591773 -252.11619642 856.53026909 -267.25 843.25 C-277.2302289 832.26681564 -281.38455287 820.01416025 -281.42700195 805.46533203 C-281.43357315 804.48407852 -281.44014435 803.50282501 -281.44691467 802.49183655 C-281.46660748 799.247161 -281.47830507 796.00253179 -281.48828125 792.7578125 C-281.49235678 791.6447662 -281.4964323 790.53171989 -281.50063133 789.38494492 C-281.52148092 783.48677508 -281.53578412 777.58862838 -281.54516602 771.69042969 C-281.55619212 765.63062161 -281.59055153 759.57118459 -281.63033772 753.51150703 C-281.65663034 748.82540254 -281.66486933 744.13938449 -281.66844749 739.45321274 C-281.67328549 737.22155137 -281.68481873 734.98989313 -281.70348549 732.7583046 C-281.84037851 715.29942365 -281.10354419 700.72939634 -270.25 686.25 C-269.81171875 685.60675781 -269.3734375 684.96351563 -268.921875 684.30078125 C-261.86580808 674.8431012 -247.69498712 667.97583139 -236.25 666.25 C-228.25710126 665.7142864 -220.2483692 665.92704435 -212.25 666.25 C-212.25 665.59 -212.25 664.93 -212.25 664.25 C-212.78238281 664.01667969 -213.31476563 663.78335938 -213.86328125 663.54296875 C-216.96922273 661.86037197 -219.66852536 659.73725672 -222.4375 657.5625 C-223.61062325 656.64706642 -224.78380042 655.73170194 -225.95703125 654.81640625 C-226.52502441 654.37184082 -227.09301758 653.92727539 -227.67822266 653.46923828 C-228.96404063 652.47182061 -230.2668467 651.49633715 -231.57421875 650.52734375 C-243.0348132 641.9919296 -253.05634113 631.53832736 -263.17886353 621.49636841 C-264.58231178 620.10482608 -265.98970452 618.71726551 -267.3972168 617.32983398 C-273.45112253 611.28362413 -278.94796396 604.96166263 -284.25 598.25 C-285.22776982 597.03507998 -286.20561985 595.8202245 -287.18359375 594.60546875 C-300.55293518 577.76108254 -311.86964505 560.08141316 -322.25 541.25 C-322.59562988 540.62867188 -322.94125977 540.00734375 -323.29736328 539.3671875 C-368.66892426 457.62446144 -377.41681756 356.95280357 -352.12109375 267.6171875 C-339.41837678 223.9379025 -319.90740348 181.91932511 -291.65869141 146.04394531 C-290.23939529 144.23649508 -288.84252969 142.41347021 -287.44921875 140.5859375 C-282.18285131 133.72111628 -276.6461283 127.22664646 -270.73046875 120.9140625 C-268.69923951 118.73249031 -266.74198434 116.5205312 -264.8125 114.25 C-257.47803003 105.83023853 -249.50413477 98.21332108 -240.76953125 91.265625 C-238.51558559 89.46246847 -236.34337439 87.60575296 -234.1875 85.6875 C-170.6678254 29.82079825 -84.04526613 0.06081348 0 0 Z M-152.25 52.25 C-153.61753418 52.930625 -153.61753418 52.930625 -155.01269531 53.625 C-184.2535645 68.27144035 -211.02121258 86.3743446 -234.77099609 108.86816406 C-236.61509406 110.59110802 -238.51598056 112.23916472 -240.4375 113.875 C-247.55427164 120.02963299 -254.23777115 126.83063354 -260.33203125 133.99609375 C-261.82965263 135.75602764 -263.35327742 137.49384314 -264.88671875 139.22265625 C-276.67839275 152.58563571 -286.89183466 167.09929765 -296.25 182.25 C-296.6207666 182.84345215 -296.9915332 183.4369043 -297.37353516 184.04833984 C-302.85068197 192.83464481 -307.7367703 201.80170363 -312.22314453 211.13134766 C-313.27398086 213.29947834 -314.35209159 215.45249161 -315.43359375 217.60546875 C-356.19224061 299.83207109 -357.78384859 396.9829304 -329.69921875 483.19921875 C-325.87007558 494.49371297 -321.22704146 505.41888948 -316.25 516.25 C-315.63753418 517.58466309 -315.63753418 517.58466309 -315.01269531 518.94628906 C-305.56711987 539.237644 -293.62357059 558.32509394 -280.25 576.25 C-279.79028809 576.86665527 -279.33057617 577.48331055 -278.85693359 578.11865234 C-272.97534208 585.94060573 -266.66757198 593.23990898 -259.95703125 600.359375 C-257.80543902 602.65689051 -255.72740159 604.97969789 -253.6875 607.375 C-246.83655633 615.27864965 -239.2264099 622.49853877 -231.25 629.25 C-229.88875 630.44496094 -229.88875 630.44496094 -228.5 631.6640625 C-216.51558518 642.11511785 -203.50237615 651.14659474 -190.3125 660 C-189.5491333 660.51361084 -188.7857666 661.02722168 -187.99926758 661.55639648 C-187.28923584 662.02762939 -186.5792041 662.4988623 -185.84765625 662.984375 C-185.22383057 663.39913086 -184.60000488 663.81388672 -183.95727539 664.24121094 C-180.02809852 666.56286957 -176.52088525 666.365536 -172.0625 666.34765625 C-171.36358643 666.3462413 -170.66467285 666.34482635 -169.94458008 666.34336853 C-167.7130096 666.33777839 -165.48154 666.3252393 -163.25 666.3125 C-161.7473973 666.30748269 -160.24479301 666.30292019 -158.7421875 666.29882812 C-154.9114301 666.28746779 -151.08072813 666.26881782 -147.25 666.25 C-144.18636686 666.25 -141.1466938 666.37072355 -138.0859375 666.50390625 C-136.88195312 666.55353516 -135.67796875 666.60316406 -134.4375 666.65429688 C-131.88786994 666.76009607 -129.33838675 666.86949356 -126.7890625 666.98242188 C-124.98695313 667.05493164 -124.98695313 667.05493164 -123.1484375 667.12890625 C-122.04161621 667.1760376 -120.93479492 667.22316895 -119.79443359 667.27172852 C-117.31418164 667.54786257 -117.31418164 667.54786257 -116.25 666.25 C-114.71921906 666.19139691 -113.18565814 666.20343076 -111.65429688 666.24414062 C-110.67658325 666.2674646 -109.69886963 666.29078857 -108.69152832 666.31481934 C-107.62801147 666.34499146 -106.56449463 666.37516357 -105.46875 666.40625 C-104.38493042 666.43223267 -103.30111084 666.45821533 -102.18444824 666.48498535 C-97.52461936 666.59685613 -92.86512325 666.72065869 -88.20556641 666.84326172 C-84.81421485 666.93082627 -81.42275642 667.01244461 -78.03125 667.09375 C-76.96773315 667.12392212 -75.90421631 667.15409424 -74.80847168 667.18518066 C-73.83075806 667.20850464 -72.85304443 667.23182861 -71.84570312 667.25585938 C-70.98046021 667.27886108 -70.11521729 667.30186279 -69.22375488 667.32556152 C-67.24724991 667.47376282 -67.24724991 667.47376282 -66.25 666.25 C-64.46210923 666.15143633 -62.67028987 666.12367893 -60.87968445 666.12301636 C-59.71452301 666.12019653 -58.54936157 666.11737671 -57.34889221 666.11447144 C-56.05901901 666.11649567 -54.76914581 666.1185199 -53.44018555 666.12060547 C-52.07708693 666.11925141 -50.71398867 666.11747145 -49.35089111 666.11529541 C-45.63798119 666.11072037 -41.92509892 666.11251126 -38.21218848 666.1156745 C-34.3316285 666.11819928 -30.45107094 666.11586008 -26.57051086 666.11428833 C-20.04936293 666.11246633 -13.5282263 666.11487306 -7.00708008 666.11962891 C0.53356469 666.12506475 8.0741824 666.12331392 15.6148265 666.1178025 C22.08279855 666.11326408 28.55076246 666.11262461 35.01873559 666.11524117 C38.88429882 666.1168008 42.74984934 666.11700641 46.61541176 666.11370468 C50.25230804 666.11081564 53.88916949 666.11282071 57.52606201 666.11859894 C59.49814303 666.12055213 61.47022699 666.11758091 63.44230652 666.11447144 C64.61592743 666.11729126 65.78954834 666.12011108 66.99873352 666.12301636 C68.52880523 666.1235819 68.52880523 666.1235819 70.08978748 666.12415886 C72.4808814 666.23726937 74.45827329 666.60712768 76.75 667.25 C78.19501765 667.30232937 79.64261827 667.30060538 81.08789062 667.25585938 C81.93557007 667.2325354 82.78324951 667.20921143 83.65661621 667.18518066 C85.01768494 667.13992249 85.01768494 667.13992249 86.40625 667.09375 C87.34553345 667.06776733 88.28481689 667.04178467 89.25256348 667.01501465 C92.25188665 666.93191814 95.25093174 666.84181312 98.25 666.75 C102.1977678 666.62914351 106.14564486 666.51546336 110.09375 666.40625 C111.45481873 666.36099182 111.45481873 666.36099182 112.84338379 666.31481934 C113.69106323 666.29149536 114.53874268 666.26817139 115.41210938 666.24414062 C116.15505249 666.22113892 116.89799561 666.19813721 117.66345215 666.17443848 C119.82761902 666.25281087 121.66273084 666.69839115 123.75 667.25 C125.59578241 667.25414433 127.4421964 667.19587178 129.28515625 667.09375 C130.86973633 667.01447266 130.86973633 667.01447266 132.48632812 666.93359375 C133.58396484 666.87300781 134.68160156 666.81242188 135.8125 666.75 C137.99060464 666.63019787 140.16899098 666.5153829 142.34765625 666.40625 C143.31195557 666.35275391 144.27625488 666.29925781 145.26977539 666.24414062 C147.75 666.25 147.75 666.25 150.75 667.25 C175.34738094 668.55426179 175.34738094 668.55426179 196.75 658.25 C198.77062871 656.79138316 200.79146362 655.33305192 202.8125 653.875 C204.79561434 652.33841472 206.77472669 650.79665191 208.75 649.25 C210.33375328 648.05579101 211.91751305 646.86159048 213.50170898 645.66796875 C225.89041766 636.2772195 237.45642228 625.91953906 248.75 615.25 C249.50023437 614.54230469 250.25046875 613.83460938 251.0234375 613.10546875 C255.5429447 608.71993904 259.48363263 603.98711206 263.41796875 599.07421875 C265.66256571 596.35588775 268.0137984 593.80857206 270.4375 591.25 C298.25189324 560.89134443 318.26531641 521.85175906 331.75 483.25 C332.0087793 482.5266748 332.26755859 481.80334961 332.53417969 481.05810547 C353.73549785 421.74009551 356.60836748 355.70821089 343.75 294.25 C343.60481934 293.53585937 343.45963867 292.82171875 343.31005859 292.0859375 C335.81903078 255.72810007 321.4915764 219.77964041 301.96630859 188.22216797 C300.75835552 186.26354795 299.57484657 184.29177804 298.39453125 182.31640625 C291.84452071 171.46652227 284.40256509 161.34215625 276.75 151.25 C276.02876953 150.28682861 276.02876953 150.28682861 275.29296875 149.30419922 C262.18099537 131.81369583 246.52608209 115.27275564 229.75 101.25 C228.93015625 100.54101562 228.1103125 99.83203125 227.265625 99.1015625 C213.94222202 87.72882349 199.71789403 77.35154987 184.75 68.25 C184.09322266 67.8482959 183.43644531 67.4465918 182.75976562 67.03271484 C172.67776735 60.89533376 162.42171315 55.29197559 151.75 50.25 C150.73679687 49.76732666 150.73679687 49.76732666 149.703125 49.27490234 C104.03744592 27.69743979 52.73440181 17.04435619 2.3125 17 C1.50930328 16.99899292 0.70610657 16.99798584 -0.12142944 16.99694824 C-52.55720391 17.0409483 -105.30966375 28.687792 -152.25 52.25 Z " fill="#EB1C26" transform="translate(638.25,139.75)"/>
<path d="M0 0 C1.57637224 1.43535491 3.16418211 2.8582964 4.765625 4.265625 C19.56687509 17.30831073 32.59953274 31.47727946 44.4453125 47.2265625 C45.00234863 47.96438965 45.55938477 48.7022168 46.13330078 49.46240234 C53.41269769 59.12776848 60.31583094 68.78566594 66.4453125 79.2265625 C67.48171875 80.90492188 67.48171875 80.90492188 68.5390625 82.6171875 C96.05297083 127.17749059 111.93566594 177.25667832 117.4453125 229.2265625 C117.58888184 230.51336914 117.58888184 230.51336914 117.73535156 231.82617188 C124.38622858 299.28847279 109.752121 367.43170295 78.4453125 427.2265625 C78.08244141 427.92185059 77.71957031 428.61713867 77.34570312 429.33349609 C63.92270322 454.82217879 46.83156528 477.70434926 27.48828125 498.96484375 C25.62712825 501.02527891 23.81360008 503.11770568 22.0078125 505.2265625 C15.38736181 512.81249558 8.11775762 519.72108019 0.4453125 526.2265625 C-0.49828125 527.04769531 -1.441875 527.86882813 -2.4140625 528.71484375 C-10.47002727 535.68782212 -18.87207947 542.05697697 -27.5546875 548.2265625 C-28.1434668 548.64744141 -28.73224609 549.06832031 -29.33886719 549.50195312 C-33.03750014 552.1393837 -36.74169748 554.7560433 -40.5546875 557.2265625 C-41.13250977 557.66790527 -41.71033203 558.10924805 -42.30566406 558.56396484 C-49.96725873 563.77795032 -58.64408539 563.04408633 -67.5546875 563.1015625 C-69.19144805 563.13333167 -70.82816984 563.16716851 -72.46484375 563.203125 C-80.65830329 563.35026672 -80.65830329 563.35026672 -84.5546875 563.2265625 C-84.8846875 562.8965625 -85.2146875 562.5665625 -85.5546875 562.2265625 C-87.54494729 562.22203575 -89.53544083 562.28781899 -91.5234375 562.3828125 C-93.33908203 562.46208984 -93.33908203 562.46208984 -95.19140625 562.54296875 C-96.46628906 562.60355469 -97.74117187 562.66414062 -99.0546875 562.7265625 C-101.56488485 562.84585398 -104.07529935 562.96068932 -106.5859375 563.0703125 C-107.70548828 563.12380859 -108.82503906 563.17730469 -109.97851562 563.23242188 C-112.5546875 563.2265625 -112.5546875 563.2265625 -113.5546875 562.2265625 C-114.99869694 562.16290186 -116.44589154 562.16939857 -117.89086914 562.20483398 C-118.8117482 562.22493027 -119.73262726 562.24502655 -120.68141174 562.26573181 C-121.68244431 562.29276688 -122.68347687 562.31980194 -123.71484375 562.34765625 C-124.73444687 562.37126724 -125.75404999 562.39487823 -126.80455017 562.41920471 C-130.07556355 562.49605357 -133.34635267 562.57998612 -136.6171875 562.6640625 C-138.8287649 562.71726196 -141.0403534 562.77000247 -143.25195312 562.82226562 C-148.68633803 562.95169723 -154.12055509 563.086952 -159.5546875 563.2265625 C-158.5646875 562.8965625 -157.5746875 562.5665625 -156.5546875 562.2265625 C-156.5546875 561.5665625 -156.5546875 560.9065625 -156.5546875 560.2265625 C-155.7503125 560.030625 -154.9459375 559.8346875 -154.1171875 559.6328125 C-117.87902138 550.41433165 -82.33686875 535.11096335 -52.5546875 512.2265625 C-51.73226562 511.60265625 -50.90984375 510.97875 -50.0625 510.3359375 C-47.87446973 508.65516684 -45.71183563 506.94671929 -43.5546875 505.2265625 C-42.80316406 504.63746094 -42.05164063 504.04835938 -41.27734375 503.44140625 C-26.14985762 491.50123486 -11.65500317 478.99100981 0.33984375 463.828125 C2.425726 461.250764 4.62113807 458.83756703 6.8828125 456.4140625 C12.31935727 450.40574319 16.93316799 443.93673542 21.4453125 437.2265625 C21.97286133 436.44265137 22.50041016 435.65874023 23.04394531 434.85107422 C68.56775373 366.59166073 85.3469774 283.38725127 69.78417969 202.80322266 C63.63662516 173.63494592 53.50419908 145.51841608 39.4453125 119.2265625 C39.11772949 118.60475098 38.79014648 117.98293945 38.45263672 117.34228516 C27.91429343 97.45122581 15.04253924 78.28220385 -0.25390625 61.73828125 C-2.12555618 59.69503693 -3.93885238 57.62283476 -5.74609375 55.5234375 C-9.90915832 50.75459331 -14.32744407 46.26182106 -18.8046875 41.7890625 C-19.64443115 40.95012451 -20.4841748 40.11118652 -21.34936523 39.24682617 C-27.15859236 33.49478862 -33.06247908 28.20000058 -39.5546875 23.2265625 C-40.28558594 22.61683594 -41.01648438 22.00710938 -41.76953125 21.37890625 C-101.44931541 -28.30323886 -182.36273971 -48.8601748 -258.8515625 -42.55859375 C-309.69743294 -37.72011824 -361.75357071 -20.60858574 -403.5546875 9.2265625 C-404.42351562 9.81566406 -405.29234375 10.40476562 -406.1875 11.01171875 C-417.04779886 18.39742039 -427.19577274 26.64209868 -436.765625 35.625 C-439.27618162 37.9667797 -441.83957095 40.22392041 -444.4296875 42.4765625 C-455.68983529 52.61611773 -465.49449537 64.11603261 -474.5546875 76.2265625 C-475.05822754 76.88962402 -475.56176758 77.55268555 -476.08056641 78.23583984 C-509.35001856 122.16870914 -527.83541435 173.03017817 -535.5546875 227.2265625 C-535.71723022 228.34937622 -535.71723022 228.34937622 -535.88305664 229.49487305 C-543.04757179 282.25655084 -533.33142123 339.85643431 -511.5546875 388.2265625 C-511.06871094 389.34160156 -510.58273437 390.45664062 -510.08203125 391.60546875 C-500.21650143 413.82383773 -486.51124132 434.14594071 -471.5546875 453.2265625 C-471.12591309 453.77538086 -470.69713867 454.32419922 -470.25537109 454.88964844 C-463.14363608 463.863254 -455.05470957 471.93099531 -446.9921875 480.0390625 C-446.4613858 480.57522186 -445.93058411 481.11138123 -445.38369751 481.66378784 C-438.44725993 488.65322334 -431.32682369 495.15527293 -423.5546875 501.2265625 C-422.86656982 501.76869385 -422.17845215 502.3108252 -421.46948242 502.86938477 C-411.55365244 510.59904751 -401.2352048 517.60271825 -390.5546875 524.2265625 C-389.54849365 524.85643066 -389.54849365 524.85643066 -388.52197266 525.49902344 C-363.27499446 541.21016216 -333.98229302 554.82493701 -304.5546875 560.2265625 C-304.5546875 560.8865625 -304.5546875 561.5465625 -304.5546875 562.2265625 C-302.9046875 562.2265625 -301.2546875 562.2265625 -299.5546875 562.2265625 C-299.5546875 562.5565625 -299.5546875 562.8865625 -299.5546875 563.2265625 C-300.48096954 563.20443947 -300.48096954 563.20443947 -301.42596436 563.18186951 C-307.84959406 563.02951485 -314.27336282 562.88474264 -320.69726562 562.74438477 C-323.09509627 562.69099506 -325.49288459 562.63566808 -327.890625 562.57836914 C-331.33584467 562.49637405 -334.78115615 562.42133285 -338.2265625 562.34765625 C-339.29960632 562.32062119 -340.37265015 562.29358612 -341.47821045 562.26573181 C-342.97931366 562.23558739 -342.97931366 562.23558739 -344.51074219 562.20483398 C-345.39010437 562.18484848 -346.26946655 562.16486298 -347.17547607 562.14427185 C-349.46496886 562.22345937 -351.35413784 562.62927435 -353.5546875 563.2265625 C-355.32721655 563.24185922 -357.10080251 563.19581337 -358.87109375 563.10546875 C-359.88236328 563.05712891 -360.89363281 563.00878906 -361.93554688 562.95898438 C-362.98548828 562.90291016 -364.03542969 562.84683594 -365.1171875 562.7890625 C-367.20180265 562.68578799 -369.28643727 562.5829056 -371.37109375 562.48046875 C-372.29349854 562.43220947 -373.21590332 562.3839502 -374.16625977 562.33422852 C-377.01634891 562.20575164 -379.83785303 562.23372874 -382.68994141 562.3059082 C-386.11295316 562.39184246 -389.53481668 562.45382758 -392.95849609 562.5012207 C-394.42873212 562.52626869 -395.89884481 562.56031799 -397.36865234 562.60375977 C-406.24343968 562.85878239 -413.17251256 562.73737205 -420.5546875 557.2265625 C-421.88433061 556.35381188 -423.21505421 555.4827051 -424.546875 554.61328125 C-425.84445961 553.71832734 -427.13868714 552.81848849 -428.4296875 551.9140625 C-429.46766479 551.19186523 -429.46766479 551.19186523 -430.52661133 550.45507812 C-432.53956205 549.05061779 -434.54748992 547.63922702 -436.5546875 546.2265625 C-438.04935547 545.18435547 -438.04935547 545.18435547 -439.57421875 544.12109375 C-446.92692303 538.89992014 -453.74372512 533.1240755 -460.5546875 527.2265625 C-461.2971875 526.58589844 -462.0396875 525.94523438 -462.8046875 525.28515625 C-464.73190102 523.61050095 -466.64538256 521.92159674 -468.5546875 520.2265625 C-469.33199219 519.54207031 -470.10929687 518.85757813 -470.91015625 518.15234375 C-479.75934668 510.29096992 -487.96101665 502.19209372 -495.34765625 492.9296875 C-497.45550066 490.34804444 -499.65782301 487.91387361 -501.9296875 485.4765625 C-546.91433589 435.95433218 -573.54557718 365.2954241 -579.5546875 299.2265625 C-579.66151855 298.05834961 -579.76834961 296.89013672 -579.87841797 295.68652344 C-583.91569304 249.24286279 -579.76673166 200.54747694 -564.5546875 156.2265625 C-564.0162294 154.59267768 -563.47848978 152.95855593 -562.94140625 151.32421875 C-557.15773042 134.015236 -549.95409644 117.27718589 -541.52539062 101.09423828 C-540.55988806 99.2365686 -539.61150485 97.37083846 -538.6640625 95.50390625 C-526.2901128 71.4112659 -509.81855077 48.80749252 -491.26171875 29.1171875 C-489.11012652 26.81967199 -487.03208909 24.49686461 -484.9921875 22.1015625 C-478.73062105 14.87785291 -471.82781214 8.14274805 -464.55078125 1.94921875 C-463.14355251 0.73476107 -461.76280062 -0.51071149 -460.40234375 -1.77734375 C-430.90498735 -29.21332084 -392.42370824 -51.36586216 -354.5546875 -64.7734375 C-352.99935303 -65.32596191 -352.99935303 -65.32596191 -351.41259766 -65.88964844 C-325.16924198 -75.11895211 -299.21955481 -81.42215133 -271.5546875 -84.7734375 C-270.63751953 -84.89203125 -269.72035156 -85.010625 -268.77539062 -85.1328125 C-179.82370708 -96.44536574 -87.44544767 -68.74513884 0 0 Z " fill="#000102" transform="translate(870.5546875,243.7734375)"/>
<path d="M0 0 C0.83164673 -0.00133942 1.66329346 -0.00267883 2.5201416 -0.00405884 C19.30420018 0.00175476 35.78492982 1.1923126 52.4375 3.25 C53.86787598 3.41822266 53.86787598 3.41822266 55.32714844 3.58984375 C65.86383625 4.87085195 74.91766342 7.52069212 84.4375 12.25 C84.4375 12.91 84.4375 13.57 84.4375 14.25 C85.02015625 14.34152344 85.6028125 14.43304688 86.203125 14.52734375 C92.95209699 16.71014063 97.45777961 25.2177912 100.6875 31.125 C106.33386412 42.34453964 107.19356948 54.92763105 108.4375 67.25 C108.55319336 68.32749512 108.66888672 69.40499023 108.78808594 70.51513672 C112.25031676 104.1768557 112.27724786 139.63545563 108.4375 173.25 C108.30327637 174.42723633 108.16905273 175.60447266 108.03076172 176.81738281 C107.59475678 180.46669105 107.12039405 184.10830553 106.625 187.75 C106.48416992 188.83071777 106.34333984 189.91143555 106.19824219 191.02490234 C104.72711063 200.87288425 101.90776622 210.56092313 94.875 217.875 C94.13121094 218.67164063 93.38742187 219.46828125 92.62109375 220.2890625 C90.4375 222.25 90.4375 222.25 88.22265625 223.3359375 C86.07407807 224.17310042 86.07407807 224.17310042 85.4375 227.25 C83.390625 228.53125 83.390625 228.53125 80.6875 229.75 C79.82640625 230.1521875 78.9653125 230.554375 78.078125 230.96875 C68.23396506 234.43321831 58.09421744 235.85700451 47.75 236.875 C46.52104004 236.99979736 45.29208008 237.12459473 44.02587891 237.25317383 C-55.1636449 247.07050027 -55.1636449 247.07050027 -87.08984375 222.40234375 C-98.42036223 212.53960176 -102.00193323 199.17205325 -103.75 184.6875 C-103.91016602 183.42647461 -104.07033203 182.16544922 -104.23535156 180.86621094 C-108.68236607 144.53835925 -109.10743379 107.68404176 -105.5625 71.25 C-105.46066406 70.16396484 -105.35882812 69.07792969 -105.25390625 67.95898438 C-103.33907684 48.25515338 -100.77541652 30.60945861 -85.6875 16.375 C-73.386057 6.37110277 -58.09330017 4.83469131 -42.875 3.125 C-41.41593236 2.95514082 -39.95694725 2.78457113 -38.49804688 2.61328125 C-35.71184126 2.28712532 -32.92489562 1.9692329 -30.13696289 1.65820312 C-28.14179333 1.43035506 -26.14743928 1.19302345 -24.15795898 0.91992188 C-16.16182337 -0.15616463 -8.05365835 0.00765935 0 0 Z " fill="#344C63" transform="translate(637.5625,403.75)"/>
<path d="M0 0 C0.84638031 -0.00067474 1.69276062 -0.00134949 2.56478882 -0.00204468 C28.75500368 0.03074941 54.13530761 2.61218406 79.75 8.25 C81.23941379 8.56070965 82.72898145 8.87068331 84.21875 9.1796875 C134.40332605 19.93566529 182.3567158 42.72079761 222.75 74.25 C223.87449794 75.10742968 224.99952502 75.96416571 226.125 76.8203125 C233.38322897 82.38378752 240.20059828 88.26859998 246.85546875 94.5390625 C249.1751534 96.71161466 251.52133366 98.81230088 253.9375 100.875 C261.47451706 107.41026163 268.31041233 114.64439646 274.75 122.25 C275.99910156 123.70019531 275.99910156 123.70019531 277.2734375 125.1796875 C293.39110881 143.95355104 306.97485009 164.08170022 319.75 185.25 C320.35642334 186.23758301 320.35642334 186.23758301 320.97509766 187.24511719 C360.9536535 252.60044491 376.14898921 337.82907013 365.75 413.25 C365.62109375 414.22098633 365.4921875 415.19197266 365.359375 416.19238281 C362.10006763 440.11660424 356.21237103 463.3101187 348.75 486.25 C348.36328125 487.44109375 348.36328125 487.44109375 347.96875 488.65625 C344.85349308 498.13182314 341.14261079 507.17139182 336.765625 516.140625 C335.64026904 518.47790276 334.55306926 520.8309128 333.46875 523.1875 C322.23708084 547.46560157 308.21549049 570.15542143 291.75 591.25 C290.89257032 592.37449794 290.03583429 593.49952502 289.1796875 594.625 C283.61962984 601.8787706 277.73859935 608.69235272 271.47265625 615.34375 C269.23699345 617.73016768 267.0685421 620.14593536 264.9375 622.625 C259.35538844 629.05656332 253.20280197 634.71003343 246.75 640.25 C245.72993992 641.14523112 244.71045192 642.04111434 243.69140625 642.9375 C216.84662024 666.41211088 216.84662024 666.41211088 206.89453125 666.6640625 C205.90207649 666.69311172 205.90207649 666.69311172 204.88957214 666.7227478 C202.78067836 666.78242687 200.67172963 666.82888087 198.5625 666.875 C197.13083585 666.91319066 195.69919441 666.95224303 194.26757812 666.9921875 C190.76192688 667.08811773 187.25610555 667.17219197 183.75 667.25 C185.07002728 663.28991817 186.59590749 662.92861969 190.1875 660.875 C204.45120109 652.42930791 217.3802789 642.23989657 229.75 631.25 C231.16599804 630.02006314 232.58255256 628.79076621 234 627.5625 C235.25185635 626.46043843 236.50176396 625.35616039 237.75 624.25 C238.94882813 623.19039062 238.94882813 623.19039062 240.171875 622.109375 C248.27985563 614.88590135 255.6250113 607.55673631 262.41796875 599.07421875 C264.66256571 596.35588775 267.0137984 593.80857206 269.4375 591.25 C297.25189324 560.89134443 317.26531641 521.85175906 330.75 483.25 C331.0087793 482.5266748 331.26755859 481.80334961 331.53417969 481.05810547 C352.73549785 421.74009551 355.60836748 355.70821089 342.75 294.25 C342.60481934 293.53585937 342.45963867 292.82171875 342.31005859 292.0859375 C334.81903078 255.72810007 320.4915764 219.77964041 300.96630859 188.22216797 C299.75835552 186.26354795 298.57484657 184.29177804 297.39453125 182.31640625 C290.84452071 171.46652227 283.40256509 161.34215625 275.75 151.25 C275.02876953 150.28682861 275.02876953 150.28682861 274.29296875 149.30419922 C261.44385629 132.16433487 246.1696871 116.02035673 229.75 102.25 C228.92886719 101.53972656 228.10773437 100.82945312 227.26171875 100.09765625 C213.93822694 88.72753945 199.71655722 78.35073699 184.75 69.25 C184.09322266 68.8482959 183.43644531 68.4465918 182.75976562 68.03271484 C172.67776735 61.89533376 162.42171315 56.29197559 151.75 51.25 C151.07453125 50.92821777 150.3990625 50.60643555 149.703125 50.27490234 C104.03744592 28.69743979 52.73440181 18.04435619 2.3125 18 C1.50930328 17.99899292 0.70610657 17.99798584 -0.12142944 17.99694824 C-52.55720391 18.0409483 -105.30966375 29.687792 -152.25 53.25 C-153.61753418 53.930625 -153.61753418 53.930625 -155.01269531 54.625 C-184.25142739 69.27036989 -211.01830685 87.37173548 -234.76660156 109.86376953 C-236.63339928 111.60828524 -238.55664076 113.27901068 -240.5 114.9375 C-247.24516818 120.77272044 -253.51169942 127.17552128 -259.296875 133.9609375 C-260.80875351 135.73285912 -262.34484841 137.48413386 -263.890625 139.2265625 C-275.68018431 152.5889817 -285.8927714 167.10081421 -295.25 182.25 C-295.6207666 182.84345215 -295.9915332 183.4369043 -296.37353516 184.04833984 C-301.85068197 192.83464481 -306.7367703 201.80170363 -311.22314453 211.13134766 C-312.27398086 213.29947834 -313.35209159 215.45249161 -314.43359375 217.60546875 C-355.19224061 299.83207109 -356.78384859 396.9829304 -328.69921875 483.19921875 C-324.87007558 494.49371297 -320.22704146 505.41888948 -315.25 516.25 C-314.63753418 517.58466309 -314.63753418 517.58466309 -314.01269531 518.94628906 C-304.56711987 539.237644 -292.62357059 558.32509394 -279.25 576.25 C-278.79028809 576.86665527 -278.33057617 577.48331055 -277.85693359 578.11865234 C-271.97646517 585.93911212 -265.66996114 593.2371442 -258.9609375 600.35546875 C-256.78838534 602.6751534 -254.68769912 605.02133366 -252.625 607.4375 C-246.08789618 614.97664163 -238.84885112 621.79965713 -231.25 628.25 C-230.34121094 629.04792969 -229.43242187 629.84585938 -228.49609375 630.66796875 C-216.01284606 641.55249527 -202.53841595 651.15129324 -188.37988281 659.73632812 C-186.61999823 660.83110583 -184.92674887 662.03170398 -183.25 663.25 C-183.25 664.24 -183.25 665.23 -183.25 666.25 C-187.56197653 666.42577828 -191.87301998 666.53135237 -196.1875 666.625 C-198.00604492 666.70041016 -198.00604492 666.70041016 -199.86132812 666.77734375 C-208.22305902 666.91330685 -212.8972636 665.66091323 -219.25 660.25 C-220.4675155 659.33126423 -221.68744931 658.41572155 -222.91015625 657.50390625 C-224.04753079 656.61090737 -225.18164535 655.71374114 -226.3125 654.8125 C-226.91610352 654.33441895 -227.51970703 653.85633789 -228.14160156 653.36376953 C-231.91381813 650.35959168 -235.63040496 647.30806129 -239.21533203 644.08081055 C-240.59758127 642.8370516 -241.98592735 641.60004193 -243.37963867 640.36914062 C-249.71001069 634.74681832 -255.77976552 628.90648392 -261.76391602 622.92138672 C-263.30923066 621.3782647 -264.86240446 619.84335694 -266.41601562 618.30859375 C-272.81078163 611.94989072 -278.67009761 605.34898991 -284.25 598.25 C-285.22739073 597.03477498 -286.20518607 595.81987514 -287.18359375 594.60546875 C-300.55293518 577.76108254 -311.86964505 560.08141316 -322.25 541.25 C-322.59562988 540.62867188 -322.94125977 540.00734375 -323.29736328 539.3671875 C-368.66892426 457.62446144 -377.41681756 356.95280357 -352.12109375 267.6171875 C-339.41837678 223.9379025 -319.90740348 181.91932511 -291.65869141 146.04394531 C-290.23939529 144.23649508 -288.84252969 142.41347021 -287.44921875 140.5859375 C-282.18285131 133.72111628 -276.6461283 127.22664646 -270.73046875 120.9140625 C-268.69923951 118.73249031 -266.74198434 116.5205312 -264.8125 114.25 C-257.47803003 105.83023853 -249.50413477 98.21332108 -240.76953125 91.265625 C-238.51558559 89.46246847 -236.34337439 87.60575296 -234.1875 85.6875 C-170.6678254 29.82079825 -84.04526613 0.06081348 0 0 Z " fill="#B1B1B1" transform="translate(638.25,139.75)"/>
<path d="M0 0 C1.15601715 0.00090637 1.15601715 0.00090637 2.33538818 0.00183105 C14.65880368 0.02797173 26.78135388 0.47062121 39 2.1875 C39.97549805 2.32172363 40.95099609 2.45594727 41.95605469 2.59423828 C56.50494815 4.64379379 70.81296443 7.35879222 85 11.1875 C85.89332031 11.42807129 86.78664063 11.66864258 87.70703125 11.91650391 C124.66857943 22.07831568 160.50417242 38.85201031 191 62.1875 C191.680625 62.69925781 192.36125 63.21101563 193.0625 63.73828125 C195.40109469 65.52323136 197.69973151 67.35336521 200 69.1875 C200.83748779 69.83887939 200.83748779 69.83887939 201.69189453 70.50341797 C218.62632845 83.70601258 234.96642742 98.8370112 247.7578125 116.16015625 C249.96713498 119.1431265 252.29620428 121.97434598 254.6875 124.8125 C259.22843363 130.34199086 263.1252684 136.17956778 267 142.1875 C267.88670505 143.52561242 268.77480353 144.8628022 269.6640625 146.19921875 C275.27688713 154.68027952 280.44647808 163.24906878 285.04833984 172.31933594 C286.01316041 174.21333465 286.99931858 176.09507427 287.98828125 177.9765625 C292.97927473 187.58301354 297.11087551 197.4561661 300.98413086 207.56079102 C301.70376652 209.42153605 302.44072975 211.27562222 303.18969727 213.12475586 C306.62207053 221.72127563 309.21950226 230.43630399 311.5625 239.375 C311.75731964 240.11228333 311.95213928 240.84956665 312.15286255 241.60919189 C315.51853139 254.4305082 318.05079503 267.23389177 319.65771484 280.40332031 C319.96557405 282.90747607 320.31457419 285.40156024 320.67578125 287.8984375 C326.81346506 333.79979199 320.8273128 384.65667107 304.796875 428.01171875 C304.06936498 429.99810641 303.38638367 431.99287346 302.71875 434 C289.92684144 470.81573684 268.22951293 507.31376696 241.44140625 535.59765625 C239.43295245 537.72822404 237.51529927 539.89100995 235.625 542.125 C228.1198113 550.7695306 219.77745788 558.84787331 211 566.1875 C209.75283203 567.26837891 209.75283203 567.26837891 208.48046875 568.37109375 C184.37355294 588.98234187 156.91419806 605.29089677 128 618.1875 C127.26117584 618.53388519 126.52235168 618.88027039 125.76113892 619.2371521 C119.37021654 622.05642064 113.90234653 622.78794074 106.9609375 622.796875 C105.45063461 622.82167938 105.45063461 622.82167938 103.90982056 622.84698486 C100.73148279 622.89510733 97.55362217 622.91675622 94.375 622.9375 C92.20440354 622.96568956 90.03382895 622.99562112 87.86328125 623.02734375 C82.57560646 623.10085599 77.28806388 623.15270694 72 623.1875 C72.99 622.8575 73.98 622.5275 75 622.1875 C75 621.5275 75 620.8675 75 620.1875 C75.804375 619.9915625 76.60875 619.795625 77.4375 619.59375 C113.67566612 610.37526915 149.21781875 595.07190085 179 572.1875 C179.82242187 571.56359375 180.64484375 570.9396875 181.4921875 570.296875 C183.68021777 568.61610434 185.84285187 566.90765679 188 565.1875 C189.12728516 564.30384766 189.12728516 564.30384766 190.27734375 563.40234375 C205.40482988 551.46217236 219.89968433 538.95194731 231.89453125 523.7890625 C233.9804135 521.2117015 236.17582557 518.79850453 238.4375 516.375 C243.87404477 510.36668069 248.48785549 503.89767292 253 497.1875 C253.52754883 496.40358887 254.05509766 495.61967773 254.59863281 494.81201172 C300.12244123 426.55259823 316.9016649 343.34818877 301.33886719 262.76416016 C295.19131266 233.59588342 285.05888658 205.47935358 271 179.1875 C270.67241699 178.56568848 270.34483398 177.94387695 270.00732422 177.30322266 C259.46898093 157.41216331 246.59722674 138.24314135 231.30078125 121.69921875 C229.42913132 119.65597443 227.61583512 117.58377226 225.80859375 115.484375 C221.64552918 110.71553081 217.22724343 106.22275856 212.75 101.75 C211.91025635 100.91106201 211.0705127 100.07212402 210.20532227 99.20776367 C204.39609514 93.45572612 198.49220842 88.16093808 192 83.1875 C191.26910156 82.57777344 190.53820312 81.96804688 189.78515625 81.33984375 C130.10537209 31.65769864 49.19194779 11.1007627 -27.296875 17.40234375 C-78.14274544 22.24081926 -130.19888321 39.35235176 -172 69.1875 C-172.86882812 69.77660156 -173.73765625 70.36570312 -174.6328125 70.97265625 C-185.49311136 78.35835789 -195.64108524 86.60303618 -205.2109375 95.5859375 C-207.72149412 97.9277172 -210.28488345 100.18485791 -212.875 102.4375 C-224.13514779 112.57705523 -233.93980787 124.07697011 -243 136.1875 C-243.50354004 136.85056152 -244.00708008 137.51362305 -244.52587891 138.19677734 C-277.79533106 182.12964664 -296.28072685 232.99111567 -304 287.1875 C-304.10836182 287.93604248 -304.21672363 288.68458496 -304.32836914 289.45581055 C-311.49288429 342.21748834 -301.77673373 399.81737181 -280 448.1875 C-279.51402344 449.30253906 -279.02804687 450.41757812 -278.52734375 451.56640625 C-268.66181393 473.78477523 -254.95655382 494.10687821 -240 513.1875 C-239.57122559 513.73631836 -239.14245117 514.28513672 -238.70068359 514.85058594 C-231.58894858 523.8241915 -223.50002207 531.89193281 -215.4375 540 C-214.9066983 540.53615936 -214.37589661 541.07231873 -213.82901001 541.62472534 C-206.89257243 548.61416084 -199.77213619 555.11621043 -192 561.1875 C-191.31188232 561.72963135 -190.62376465 562.2717627 -189.91479492 562.83032227 C-179.99896494 570.55998501 -169.6805173 577.56365575 -159 584.1875 C-157.99380615 584.81736816 -157.99380615 584.81736816 -156.96728516 585.45996094 C-131.72030696 601.17109966 -102.42760552 614.78587451 -73 620.1875 C-73 620.8475 -73 621.5075 -73 622.1875 C-71.35 622.1875 -69.7 622.1875 -68 622.1875 C-68 622.5175 -68 622.8475 -68 623.1875 C-74.59450207 623.27419659 -81.18651669 623.28742114 -87.78149414 623.25463867 C-90.01460295 623.25159738 -92.24779861 623.26407024 -94.48071289 623.29370117 C-111.01728296 623.49831565 -123.35278404 620.85332194 -138 613.1875 C-139.72424629 612.31683405 -141.44934214 611.44784847 -143.17529297 610.58056641 C-182.81424196 590.56927286 -221.76664843 562.61864617 -249 527.1875 C-250.09741865 525.8047662 -251.19652373 524.42336997 -252.296875 523.04296875 C-289.88407295 475.66483381 -311.79609551 419.86001086 -320 360.1875 C-320.12149414 359.33881348 -320.24298828 358.49012695 -320.36816406 357.61572266 C-324.02497091 331.39041386 -322.6676993 304.30800071 -319 278.1875 C-318.79117187 276.63844971 -318.79117187 276.63844971 -318.578125 275.05810547 C-316.41474881 259.35610077 -312.67845653 244.32005078 -308 229.1875 C-307.68514648 228.16591797 -307.37029297 227.14433594 -307.04589844 226.09179688 C-300.38558308 204.74897555 -291.79361467 184.7545822 -281 165.1875 C-280.6508252 164.54731934 -280.30165039 163.90713867 -279.94189453 163.24755859 C-271.36140646 147.55644643 -261.15379607 133.140667 -250 119.1875 C-249.52320801 118.59066406 -249.04641602 117.99382812 -248.55517578 117.37890625 C-241.05878037 108.12189435 -232.70263897 99.68742985 -224.3125 91.25 C-223.77911011 90.71125244 -223.24572021 90.17250488 -222.69616699 89.61743164 C-216.12484718 82.99609563 -209.44037355 76.84347577 -202 71.1875 C-201.35490479 70.68307373 -200.70980957 70.17864746 -200.04516602 69.65893555 C-192.13357929 63.47857266 -183.9759704 57.72651553 -175.5625 52.25 C-174.74668457 51.71866455 -173.93086914 51.1873291 -173.09033203 50.63989258 C-167.83981393 47.26440684 -162.49184796 44.1518865 -157 41.1875 C-156.21858643 40.76138428 -155.43717285 40.33526855 -154.63208008 39.89624023 C-107.11529866 14.11692239 -54.17436028 -0.07891385 0 0 Z " fill="#000102" transform="translate(639,183.8125)"/>
<path d="M0 0 C0.80953125 0.24186035 1.6190625 0.4837207 2.453125 0.73291016 C44.07031167 13.28707425 85.30587662 35.00920763 117 65 C118.24469142 66.08942846 119.49465405 67.172866 120.75 68.25 C137.63019024 82.99867945 137.63019024 82.99867945 144.17578125 90.86328125 C146.12930475 93.15145545 148.17989001 95.33500302 150.24536133 97.52197266 C170.22111141 118.75184756 187.6680432 144.66231415 200.06884766 171.03613281 C201.00603921 173.01273714 201.97404114 174.97158124 202.94921875 176.9296875 C208.86370981 188.94504452 213.51350948 201.39261384 218 214 C218.28617188 214.78503906 218.57234375 215.57007813 218.8671875 216.37890625 C227.88828783 241.34323834 232.11678685 268.63114891 234 295 C234.07976074 296.08200684 234.15952148 297.16401367 234.24169922 298.27880859 C237.217837 341.81377814 231.52855234 386.8323675 217 428 C216.74734375 428.73395996 216.4946875 429.46791992 216.234375 430.22412109 C199.06809663 479.58729304 169.48244571 522.46402899 132.8125 559.3125 C132.15934814 559.97032471 131.50619629 560.62814941 130.83325195 561.3059082 C124.24132515 567.87625207 117.27657579 573.90667141 109.9375 579.625 C109.36451172 580.07617188 108.79152344 580.52734375 108.20117188 580.9921875 C96.69550332 590 96.69550332 590 94 590 C93.67 590.99 93.34 591.98 93 593 C90.54898051 594.713649 88.12297935 596.28036032 85.5625 597.8125 C84.82894287 598.25972412 84.09538574 598.70694824 83.33959961 599.16772461 C81.87969515 600.05628513 80.41757867 600.9412229 78.953125 601.82226562 C77.39863578 602.75962263 75.85382583 603.71302695 74.3125 604.671875 C69.01690862 607.94484467 63.55661328 610.89000157 58.0625 613.8125 C56.94210327 614.40913452 56.94210327 614.40913452 55.79907227 615.01782227 C55.09322998 615.38963623 54.3873877 615.7614502 53.66015625 616.14453125 C53.02730713 616.47815674 52.39445801 616.81178223 51.74243164 617.15551758 C48.02709975 618.95618074 44.877725 619.18242218 40.80078125 619.31640625 C39.59228516 619.35830078 38.38378906 619.40019531 37.13867188 619.44335938 C35.87603516 619.48267578 34.61339844 619.52199219 33.3125 619.5625 C31.40114258 619.62727539 31.40114258 619.62727539 29.45117188 619.69335938 C26.30089148 619.7995486 23.15053161 619.90159533 20 620 C20.66 619.67 21.32 619.34 22 619 C22 618.34 22 617.68 22 617 C23.80017578 616.21689453 23.80017578 616.21689453 25.63671875 615.41796875 C49.58518289 604.88890262 71.98311773 592.59001648 93 577 C93.55284668 576.59281738 94.10569336 576.18563477 94.67529297 575.76611328 C101.9339391 570.39824972 108.71648317 564.69045725 115.30078125 558.515625 C117.49383456 556.4717374 119.71621991 554.50253587 122 552.5625 C130.28805493 545.34275984 137.88700614 537.50985193 144.671875 528.86328125 C146.66541335 526.41149667 148.72476662 524.0844006 150.84765625 521.74609375 C154.81712877 517.30196034 158.3062686 512.65132533 161.6875 507.75 C162.2848999 506.88648926 162.8822998 506.02297852 163.49780273 505.13330078 C178.95085034 482.59582558 192.59044152 458.73419517 202 433 C202.34482422 432.06768555 202.68964844 431.13537109 203.04492188 430.17480469 C229.76069597 356.94950706 230.20968248 270.98741956 199 199 C198.6803125 198.25218262 198.360625 197.50436523 198.03125 196.73388672 C189.38479855 176.57431364 179.54684984 157.03193286 167 139 C166.10795373 137.69278966 165.21603465 136.38549251 164.32421875 135.078125 C157.09855429 124.57692339 149.27784006 114.68913529 141 105 C140.24460937 104.11183594 139.48921875 103.22367187 138.7109375 102.30859375 C128.49088728 90.64826618 117.42267128 79.30074342 105 70 C103.41403329 68.71156808 101.83079561 67.4197712 100.25 66.125 C44.32250878 21.60775428 -26.83128595 -2.29168685 -98.125 -2.1875 C-98.89512421 -2.18689575 -99.66524841 -2.1862915 -100.45870972 -2.18566895 C-112.42525323 -2.16026392 -124.14044161 -1.68799748 -136 0 C-136.97630371 0.12890625 -137.95260742 0.2578125 -138.95849609 0.390625 C-176.02927854 5.31137412 -211.58758005 16.22632735 -245 33 C-245.75925781 33.37753418 -246.51851562 33.75506836 -247.30078125 34.14404297 C-260.83615891 40.92766327 -273.79102377 49.05269187 -286 58 C-286.58217285 58.42506836 -287.1643457 58.85013672 -287.76416016 59.28808594 C-301.89894673 69.63962353 -314.83098819 80.65365262 -327.25 93 C-328.02102051 93.76298401 -328.02102051 93.76298401 -328.80761719 94.54138184 C-335.67379184 101.35326325 -342.02232681 108.37831404 -348 116 C-348.50208984 116.63309082 -349.00417969 117.26618164 -349.52148438 117.91845703 C-363.56411357 135.73570271 -375.86646063 154.69748931 -386 175 C-386.87011719 176.72283203 -386.87011719 176.72283203 -387.7578125 178.48046875 C-397.32651746 198.17419873 -404.30276173 218.89749324 -410 240 C-410.39139547 241.39207666 -410.78326811 242.78401932 -411.17578125 244.17578125 C-421.59136851 282.90246285 -422.75774868 324.45772384 -417 364 C-416.85546387 365.03302246 -416.71092773 366.06604492 -416.56201172 367.13037109 C-414.48094216 381.76238729 -411.34368899 395.8768693 -407 410 C-406.64663574 411.15306641 -406.29327148 412.30613281 -405.92919922 413.49414062 C-400.51196126 430.93769279 -394.18079585 447.63253972 -386 464 C-385.55591797 464.88848633 -385.11183594 465.77697266 -384.65429688 466.69238281 C-379.90710776 476.09936803 -374.93563472 485.28039502 -369 494 C-367.97132813 495.53140625 -367.97132813 495.53140625 -366.921875 497.09375 C-358.34940396 509.68269349 -348.92980455 521.46162898 -339 533 C-338.41992188 533.69351563 -337.83984375 534.38703125 -337.2421875 535.1015625 C-328.19422552 545.78634173 -317.99520469 555.36305643 -307 564 C-305.9402798 564.88120223 -304.88311352 565.76548215 -303.828125 566.65234375 C-278.48717294 587.76319239 -249.31978319 604.21011841 -219 617 C-219 617.66 -219 618.32 -219 619 C-218.34 619.33 -217.68 619.66 -217 620 C-245.40837866 620.44894716 -245.40837866 620.44894716 -258.00537109 612.27587891 C-260.20024864 610.8719095 -262.44223818 609.58095306 -264.70703125 608.29296875 C-287.10879415 595.42969602 -307.56313862 580.01272293 -326.421875 562.390625 C-328.67415566 560.30214657 -330.96966396 558.29765115 -333.3125 556.3125 C-336.63511048 553.43610787 -339.46536027 550.29684381 -342.30078125 546.9453125 C-343.87454351 545.14362605 -345.51297655 543.51712668 -347.25 541.875 C-351.71544273 537.4896549 -355.41273049 532.49767453 -359.23046875 527.5546875 C-361.64496209 524.43280022 -364.15041591 521.39846809 -366.6875 518.375 C-371.22792327 512.84437804 -375.14659644 507.02321084 -379 501 C-379.74289556 499.8772109 -380.48640539 498.75482804 -381.23046875 497.6328125 C-400.18112127 468.65870681 -413.40390814 436.45999317 -422 403 C-422.34901367 401.65929443 -422.34901367 401.65929443 -422.70507812 400.29150391 C-428.28877356 378.47770798 -432.08901089 355.46592823 -432.203125 332.91015625 C-432.21013931 331.97620529 -432.21715363 331.04225433 -432.22438049 330.08000183 C-432.24181245 327.07411835 -432.24823518 324.06843221 -432.25 321.0625 C-432.25067474 320.03322388 -432.25134949 319.00394775 -432.25204468 317.94348145 C-432.23521608 301.77229647 -431.66322087 285.98443205 -429 270 C-428.81775879 268.90365234 -428.63551758 267.80730469 -428.44775391 266.67773438 C-424.94852273 246.2494742 -419.88108841 226.53705352 -413 207 C-412.77763672 206.35562988 -412.55527344 205.71125977 -412.32617188 205.04736328 C-407.79438489 191.97620155 -401.96762085 179.46845363 -396 167 C-395.63036133 166.2251123 -395.26072266 165.45022461 -394.87988281 164.65185547 C-380.04789952 134.00894982 -357.74889848 106.31834316 -333.68115234 82.42041016 C-331.86185679 80.61193496 -330.0536402 78.79286673 -328.24609375 76.97265625 C-321.80739239 70.52634549 -315.27492565 64.51125597 -308 59 C-306.98292969 58.18273437 -305.96585937 57.36546875 -304.91796875 56.5234375 C-290.84193244 45.44787245 -275.78256384 35.4699367 -260 27 C-259.21125488 26.57090332 -258.42250977 26.14180664 -257.60986328 25.69970703 C-246.62169015 19.73516936 -235.71071549 14.38014553 -224 10 C-222.44970792 9.37310032 -220.90030358 8.74400292 -219.3515625 8.11328125 C-149.6809229 -19.811335 -71.53002957 -21.85211571 0 0 Z " fill="#16779F" transform="translate(738,187)"/>
<path d="M0 0 C1.41285278 0.26562744 1.41285278 0.26562744 2.85424805 0.53662109 C47.68506862 9.34747279 87.92543309 28.83788968 120.9375 60.4375 C121.43491699 60.90768555 121.93233398 61.37787109 122.44482422 61.86230469 C130.45020929 69.45880565 137.34891637 77.59466903 143.9375 86.4375 C144.35741211 86.99131348 144.77732422 87.54512695 145.20996094 88.11572266 C167.73630177 117.89586177 181.8652381 152.67406072 187.9375 189.4375 C188.06737305 190.20271973 188.19724609 190.96793945 188.33105469 191.75634766 C191.93314886 214.17105971 196.30217287 258.31008027 183.28125 277.93359375 C182.6728125 278.57425781 182.064375 279.21492188 181.4375 279.875 C180.8290625 280.53371094 180.220625 281.19242188 179.59375 281.87109375 C176.0743444 285.19958819 172.41891645 284.82565834 167.77734375 284.7890625 C163.23975815 284.22732563 161.22198016 282.57917667 157.9375 279.4375 C155.84251056 274.09166487 156.90332294 268.20414124 158.00561523 262.74560547 C165.80760432 222.17879056 159.14575848 177.23933354 140.9375 140.4375 C140.57317871 139.68194824 140.20885742 138.92639648 139.83349609 138.14794922 C131.53935374 121.04195006 121.1171144 105.17851785 107.9375 91.4375 C106.84913245 90.15007235 105.76570789 88.85844816 104.6875 87.5625 C75.03431489 53.76058945 29.9069583 34.31156718 -13.79296875 27.71484375 C-14.56302246 27.59351074 -15.33307617 27.47217773 -16.12646484 27.34716797 C-17.5678893 27.12461579 -19.01228884 26.92013363 -20.45947266 26.73876953 C-25.77720995 25.93457236 -28.32458889 24.09624204 -32.0625 20.4375 C-33.69311839 17.17626322 -33.59410656 13.96093883 -33.0625 10.4375 C-31.27181272 5.80179554 -28.70035883 2.42918744 -24.375 -0.0625 C-16.6314031 -3.20961502 -7.97815196 -1.50732119 0 0 Z " fill="#1D303D" transform="translate(696.0625,281.5625)"/>
<path d="M0 0 C-2.9992804 2.5155255 -6.08047842 4.71189051 -9.375 6.8125 C-21.96149453 15.18262323 -27.82163563 26.39546721 -31 41 C-32.01289289 46.77598737 -32.58759704 52.6072524 -33.1875 58.4375 C-33.35248104 59.9330572 -33.51849397 61.42850093 -33.68554688 62.92382812 C-35.67929141 81.05539766 -36.23812933 99.01602964 -36.25 117.25 C-36.25133942 118.46465942 -36.25267883 119.67931885 -36.25405884 120.93078613 C-36.24924687 141.10721747 -35.47078507 160.97166645 -33 181 C-32.8772168 182.01884277 -32.75443359 183.03768555 -32.62792969 184.08740234 C-30.4187013 201.72775625 -26.37197107 216.71907456 -12.09765625 228.49609375 C-8.58597514 231.01377946 -4.85668058 233.06273221 -1 235 C-1 235.33 -1 235.66 -1 236 C-25.74305753 235.44708251 -52.54691801 234.39087752 -71.06640625 215.94140625 C-79.12249664 206.45853527 -81.73238499 194.49464288 -83.1875 182.4375 C-83.34766602 181.17647461 -83.50783203 179.91544922 -83.67285156 178.61621094 C-88.11986607 142.28835925 -88.54493379 105.43404176 -85 69 C-84.89816406 67.91396484 -84.79632812 66.82792969 -84.69140625 65.70898438 C-82.77657684 46.00515338 -80.21291652 28.35945861 -65.125 14.125 C-53.39113306 4.58267241 -38.87079065 2.71488687 -24.32519531 1.00976562 C-22.10577516 0.74773022 -19.88899128 0.46829573 -17.671875 0.1875 C-16.24231267 0.01458698 -14.81262878 -0.15732465 -13.3828125 -0.328125 C-11.47072998 -0.55870605 -11.47072998 -0.55870605 -9.52001953 -0.79394531 C-6.13375939 -0.99217 -3.30578089 -0.7057928 0 0 Z " fill="#1D303D" transform="translate(617,406)"/>
<path d="M0 0 C3.36147481 2.76121145 5.5064786 6.18599049 5.97363281 10.50512695 C5.93197423 14.91448934 5.55985861 19.01629372 4.68188477 23.35620117 C-4.74459983 71.51173612 7.12788807 125.80600477 33.6875 166.6875 C64.59932579 211.37856175 108.64402299 240.21585231 161.02612305 253.90014648 C162.75 254.4375 162.75 254.4375 163.75 255.4375 C163.83767112 257.51012076 163.85695873 259.58570294 163.84765625 261.66015625 C163.84443359 262.92021484 163.84121094 264.18027344 163.83789062 265.47851562 C163.82953403 266.81901109 163.82106907 268.15950588 163.8125 269.5 C163.8074866 270.84439942 163.80292342 272.1888006 163.79882812 273.53320312 C163.78699488 276.83467941 163.77050971 280.13606803 163.75 283.4375 C116.18940513 276.17343852 73.34309269 253.55049022 38.75 220.4375 C38.25258301 219.96731445 37.75516602 219.49712891 37.24267578 219.01269531 C29.24403398 211.4225932 22.31605623 203.28929483 15.75 194.4375 C15.11449219 193.58542969 14.47898437 192.73335937 13.82421875 191.85546875 C-21.40782394 143.0165682 -33.83039737 81.06941178 -24.68920898 21.99536133 C-23.29550248 13.87870596 -22.08421954 7.89764934 -15.6875 2.125 C-10.92247346 -1.17386453 -5.5146638 -1.37866595 0 0 Z " fill="#1D303D" transform="translate(415.25,479.5625)"/>
<path d="M0 0 C1.01477417 0.24339111 1.01477417 0.24339111 2.05004883 0.49169922 C5.47979573 1.08267274 8.71840254 1.12969608 12.19921875 1.1328125 C12.87547806 1.13376923 13.55173737 1.13472595 14.24848938 1.13571167 C15.66964817 1.13638906 17.09081013 1.13456566 18.51196289 1.13037109 C20.69098794 1.12499139 22.86980922 1.13034377 25.04882812 1.13671875 C26.43229212 1.13605838 27.81575599 1.13477807 29.19921875 1.1328125 C30.45565186 1.13168457 31.71208496 1.13055664 33.0065918 1.12939453 C35.92568265 1.20722929 35.92568265 1.20722929 38 0 C38.99 0.495 38.99 0.495 40 1 C44.13558734 1.36969335 48.28894016 1.4685374 52.4375 1.625 C53.59572266 1.6765625 54.75394531 1.728125 55.94726562 1.78125 C57.05650391 1.82507813 58.16574219 1.86890625 59.30859375 1.9140625 C60.83697876 1.9752124 60.83697876 1.9752124 62.39624023 2.03759766 C65.11525785 2.12963487 65.11525785 2.12963487 68 1 C69.45870088 0.94090242 70.92022634 0.94063621 72.37963867 0.97827148 C73.26032516 0.99836777 74.14101166 1.01846405 75.04838562 1.03916931 C75.99534805 1.06620438 76.94231049 1.09323944 77.91796875 1.12109375 C78.89034988 1.14470474 79.86273102 1.16831573 80.86457825 1.19264221 C83.97236817 1.26925624 87.0799075 1.35329055 90.1875 1.4375 C92.2936075 1.49072293 94.39972726 1.54346332 96.50585938 1.59570312 C101.67073181 1.72486841 106.83539166 1.8606892 112 2 C112 1.67 112 1.34 112 1 C131.2795303 0.97667233 150.55905774 0.95902147 169.83859921 0.94818783 C178.78978382 0.94302459 187.74095968 0.93598137 196.69213867 0.92456055 C204.49110388 0.91461455 212.29006276 0.90814678 220.08903414 0.90591151 C224.22112186 0.90460425 228.35319144 0.90151749 232.48527336 0.89426994 C236.37001526 0.88751106 240.25473146 0.88538277 244.13947868 0.88689232 C245.56939839 0.88661593 246.99931891 0.88461002 248.42923355 0.88079453 C250.37318051 0.87585941 252.31714109 0.87760195 254.26109314 0.87974548 C255.35157424 0.87882369 256.44205534 0.8779019 257.56558132 0.87695217 C260 1 260 1 261 2 C262.40300177 2.05840386 263.80902271 2.04666712 265.21264648 2.00585938 C266.10704941 1.9825354 267.00145233 1.95921143 267.92295837 1.93518066 C268.89584305 1.90500854 269.86872772 1.87483643 270.87109375 1.84375 C271.86375748 1.81776733 272.8564212 1.79178467 273.87916565 1.76501465 C278.14565916 1.65321434 282.41178912 1.5295202 286.67797852 1.40673828 C289.7839188 1.31903334 292.88997832 1.23747333 295.99609375 1.15625 C296.96695419 1.12607788 297.93781464 1.09590576 298.93809509 1.06481934 C299.83565018 1.04149536 300.73320526 1.01817139 301.65795898 0.99414062 C302.44992172 0.97113892 303.24188446 0.94813721 304.05784607 0.92443848 C306 1 306 1 308 2 C309.9499095 2.00439788 311.90016332 1.94089787 313.84765625 1.84375 C315.00974609 1.79089844 316.17183594 1.73804688 317.36914062 1.68359375 C318.58794922 1.62300781 319.80675781 1.56242188 321.0625 1.5 C323.46982359 1.38071248 325.87737339 1.26587698 328.28515625 1.15625 C329.35644775 1.10275391 330.42773926 1.04925781 331.53149414 0.99414062 C334 1 334 1 335 2 C337.58405761 2.00457355 340.13832252 1.9465608 342.71875 1.84375 C343.49182495 1.81776733 344.2648999 1.79178467 345.06140137 1.76501465 C347.54113192 1.68155195 350.0205555 1.59154725 352.5 1.5 C355.76024774 1.37962356 359.02062383 1.26583803 362.28125 1.15625 C363.03853394 1.12607788 363.79581787 1.09590576 364.5760498 1.06481934 C366.38315202 1.00438428 368.19189033 0.99679981 370 1 C370.33 1.33 370.66 1.66 371 2 C372.8666066 2.00456709 374.73343036 1.93810521 376.59765625 1.84375 C377.78020996 1.78977051 378.96276367 1.73579102 380.18115234 1.68017578 C381.46199707 1.62071777 382.7428418 1.56125977 384.0625 1.5 C432.74588041 -0.37913406 432.74588041 -0.37913406 449.875 14.64453125 C451.5625 16.25 451.5625 16.25 454 19 C454 19.66 454 20.32 454 21 C277.12 21 100.24 21 -82 21 C-82.33 20.01 -82.66 19.02 -83 18 C-70.01777819 6.91921472 -56.52429601 1.39514852 -39.5 1.875 C-37.36466334 1.91821515 -35.22924198 1.95748576 -33.09375 1.9921875 C-32.16240234 2.01651855 -31.23105469 2.04084961 -30.27148438 2.06591797 C-27.96623428 2.15856724 -27.96623428 2.15856724 -26 1 C-24.0406396 0.91489795 -22.07837206 0.89282344 -20.1171875 0.90234375 C-18.95058594 0.90556641 -17.78398437 0.90878906 -16.58203125 0.91210938 C-15.35871094 0.92048828 -14.13539063 0.92886719 -12.875 0.9375 C-11.64394531 0.94201172 -10.41289062 0.94652344 -9.14453125 0.95117188 C-6.09630608 0.9629867 -3.04817686 0.97945972 0 1 C0 0.67 0 0.34 0 0 Z " fill="#BD1025" transform="translate(454,804)"/>
<path d="M0 0 C177.54 0 355.08 0 538 0 C534.19962208 7.60075585 526.62764362 12.49373288 518.66751444 15.1846121 C507.85830561 18.48869848 497.06617608 18.28538592 485.88369751 18.26069641 C483.94068644 18.26371985 481.99767657 18.2676103 480.05466878 18.27228898 C474.73445772 18.2825528 469.41431417 18.28039127 464.09409761 18.27610838 C458.34892332 18.27363825 452.60376516 18.28265888 446.8585968 18.29014587 C435.61074393 18.30288668 424.36291493 18.30468735 413.11505605 18.30234561 C403.9716433 18.30056168 394.82823779 18.30231371 385.6848259 18.30657005 C383.73189886 18.30746284 383.73189886 18.30746284 381.73951875 18.30837366 C379.09450313 18.30958542 376.44948751 18.31079956 373.8044719 18.31201603 C356.0489108 18.3198014 338.29335282 18.32372366 320.5377903 18.31969929 C319.49698055 18.31946472 319.49698055 18.31946472 318.43514434 18.31922542 C314.91857223 18.31841968 311.40200012 18.3175739 307.88542803 18.31671212 C306.83788311 18.31645549 306.83788311 18.31645549 305.76917567 18.31619367 C304.35691699 18.31584701 302.94465831 18.31549848 301.53239964 18.31514808 C279.55804222 18.30979099 257.58372493 18.3177226 235.609375 18.33618164 C210.9030107 18.35691149 186.1966722 18.36759143 161.49029863 18.36360615 C148.41536888 18.36169415 135.34047569 18.36418167 122.26555252 18.37832069 C111.13531595 18.39023514 100.00513845 18.39163858 88.87490107 18.37953053 C83.19837878 18.37364248 77.52196454 18.37254052 71.84544945 18.38453293 C66.64421692 18.39539339 61.44318264 18.39228627 56.24195938 18.37827124 C54.36521879 18.3756248 52.48846265 18.37798916 50.61173733 18.38600711 C30.65651569 18.46531216 16.52342257 14.86581262 1 2 C0.67 1.34 0.34 0.68 0 0 Z " fill="#BE1025" transform="translate(370,981)"/>
<path d="M0 0 C4.99965881 3.01492394 9.54263677 6.49507592 14.03320312 10.22607422 C14.58282715 10.67176758 15.13245117 11.11746094 15.69873047 11.57666016 C49.81290795 39.27482487 72.30021027 79.40426327 77.03320312 123.22607422 C77.43744408 128.94365939 77.46868686 134.65870705 77.42431641 140.38818359 C77.40815689 142.85814172 77.42433003 145.32647566 77.44335938 147.79638672 C77.45548392 155.81588201 77.0691745 163.64148124 75.75976562 171.56201172 C75.65191742 172.24784332 75.54406921 172.93367493 75.43295288 173.64028931 C74.45323367 178.89205799 72.4166259 183.10369299 68.39257812 186.68701172 C63.95164331 189.20929023 60.11618336 190.22273701 55.03320312 189.22607422 C51.69149 187.941808 48.80911796 186.45956754 46.84960938 183.34448242 C44.42146441 177.04394 46.2785086 169.08203158 47.03320312 162.53857422 C51.20426016 123.01163213 40.79435477 86.3802785 16.03320312 55.22607422 C13.13118562 51.79452937 10.11572978 48.49558256 7.03320312 45.22607422 C6.38222656 44.49904297 5.73125 43.77201172 5.06054688 43.02294922 C-14.99143213 21.5414457 -46.11152052 9.07824991 -74.84179688 5.28857422 C-81.28750008 4.34793332 -84.72493704 3.06576334 -88.84179688 -2.14892578 C-90.6954129 -6.47402984 -90.45173866 -9.45380647 -88.84179688 -13.83642578 C-73.03106976 -38.60656493 -18.70701038 -10.79346362 0 0 Z " fill="#1D303D" transform="translate(739.966796875,369.77392578125)"/>
<path d="M0 0 C3.04782025 2.57488262 5.82050993 5.89620944 6.16796875 9.96875 C6.21448481 15.99723093 5.7259231 21.8389021 5 27.8125 C0.92172087 62.23388824 9.31128837 99.62840296 30.9375 127.25 C32.27515005 128.84731153 33.62969495 130.4306129 35 132 C36.11761719 133.28197266 36.11761719 133.28197266 37.2578125 134.58984375 C39.47528594 137.08919941 41.72857643 139.54969142 44 142 C44.53882813 142.60457031 45.07765625 143.20914063 45.6328125 143.83203125 C58.51098138 157.64855917 78.16756429 169.05585476 96 175 C97.43509221 177.87018441 97.11158506 180.33543723 97.09765625 183.5390625 C97.09282227 185.49199219 97.09282227 185.49199219 97.08789062 187.484375 C97.07953466 188.86458399 97.07106971 190.24479232 97.0625 191.625 C97.05748501 193.01301926 97.0529221 194.40104022 97.04882812 195.7890625 C97.03700976 199.19275132 97.02053434 202.59635439 97 206 C68.76006795 200.22456688 44.04830894 184.17292805 23 165 C22.25363281 164.32582031 21.50726563 163.65164063 20.73828125 162.95703125 C0.72288899 143.91601914 -12.42251929 118.26346521 -20 92 C-20.19964355 91.3179248 -20.39928711 90.63584961 -20.60498047 89.93310547 C-27.4489729 65.91271348 -30.45705195 31.78484119 -21 8 C-18.29419509 4.00996788 -15.32859672 1.67843237 -11.0625 -0.5 C-7.14618859 -1.13939778 -3.77840764 -1.36053773 0 0 Z " fill="#1D303D" transform="translate(482,487)"/>
<path d="M0 0 C1.24910156 -0.01836914 1.24910156 -0.01836914 2.5234375 -0.03710938 C3.71839844 -0.04000977 3.71839844 -0.04000977 4.9375 -0.04296875 C6.03384766 -0.04913208 6.03384766 -0.04913208 7.15234375 -0.05541992 C9 0.1875 9 0.1875 11 2.1875 C11.27174377 4.0537262 11.27174377 4.0537262 11.30297852 6.34594727 C11.31962051 7.20346085 11.33626251 8.06097443 11.35340881 8.94447327 C11.36182297 9.87158615 11.37023712 10.79869904 11.37890625 11.75390625 C11.39590073 12.70313461 11.4128952 13.65236298 11.43040466 14.63035583 C11.48365799 17.67016921 11.52389109 20.70996803 11.5625 23.75 C11.60635908 26.79353255 11.65300535 29.83695638 11.70530701 32.88035583 C11.73737822 34.77664569 11.76423216 36.6730319 11.78553772 38.56947327 C11.79902756 39.42383469 11.8125174 40.27819611 11.82641602 41.15844727 C11.83592789 41.91408463 11.84543976 42.66972198 11.85523987 43.44825745 C11.81386985 45.21670961 11.81386985 45.21670961 13 46.1875 C14.65738443 46.28096915 16.31874644 46.30494977 17.97875977 46.30102539 C19.57029625 46.30091209 19.57029625 46.30091209 21.19398499 46.30079651 C22.348134 46.29563522 23.50228302 46.29047394 24.69140625 46.28515625 C26.4538694 46.28303383 26.4538694 46.28303383 28.25193787 46.28086853 C32.02215064 46.27524992 35.79230504 46.26269426 39.5625 46.25 C42.11132727 46.2449874 44.66015547 46.24042408 47.20898438 46.23632812 C53.47267633 46.22527444 59.73633399 46.20851821 66 46.1875 C66.00808685 45.64070587 66.01617371 45.09391174 66.02450562 44.5305481 C66.11038769 38.85296886 66.20988325 33.1757454 66.31738281 27.49853516 C66.35572842 25.3781531 66.39057133 23.25770474 66.421875 21.13720703 C66.46740466 18.09383402 66.52541839 15.05091968 66.5859375 12.0078125 C66.59748871 11.05568878 66.60903992 10.10356506 66.62094116 9.12258911 C66.64081085 8.24182709 66.66068054 7.36106506 66.68115234 6.45361328 C66.69447601 5.67639923 66.70779968 4.89918518 66.7215271 4.09841919 C67 2.1875 67 2.1875 69 0.1875 C70.97119141 -0.03955078 70.97119141 -0.03955078 73.3515625 -0.0078125 C74.20234375 -0.00136719 75.053125 0.00507812 75.9296875 0.01171875 C77.26386719 0.03685547 77.26386719 0.03685547 78.625 0.0625 C79.97078125 0.07603516 79.97078125 0.07603516 81.34375 0.08984375 C83.56276586 0.1134503 85.78125077 0.1463769 88 0.1875 C89.20139488 2.59028975 89.12320302 4.07275367 89.12025452 6.75588989 C89.12231651 8.19883423 89.12231651 8.19883423 89.12442017 9.67092896 C89.11902725 11.25911942 89.11902725 11.25911942 89.11352539 12.87939453 C89.11367142 13.99159363 89.11381744 15.10379272 89.1139679 16.24969482 C89.1132691 19.9399203 89.10547824 23.6300958 89.09765625 27.3203125 C89.09579195 29.87336194 89.0943681 32.42641174 89.09336853 34.97946167 C89.08993553 41.02136916 89.08204747 47.06325508 89.07201904 53.10515392 C89.06085045 59.98293876 89.05534557 66.86072445 89.05032361 73.73851609 C89.03986466 87.8881874 89.02226986 102.03784271 89 116.1875 C85.70840684 116.24540353 82.41694397 116.28106261 79.125 116.3125 C78.18785156 116.32925781 77.25070312 116.34601563 76.28515625 116.36328125 C75.38925781 116.36972656 74.49335937 116.37617187 73.5703125 116.3828125 C72.74289551 116.39328613 71.91547852 116.40375977 71.06298828 116.41455078 C69 116.1875 69 116.1875 67 114.1875 C66.7215271 112.27658081 66.7215271 112.27658081 66.68115234 109.92138672 C66.66109131 109.02830811 66.64103027 108.13522949 66.62036133 107.21508789 C66.60900146 106.27528076 66.5976416 105.33547363 66.5859375 104.3671875 C66.56829346 103.50424072 66.55064941 102.64129395 66.5324707 101.75219727 C66.4693097 98.52248922 66.423188 95.29246614 66.375 92.0625 C66.25125 84.84375 66.1275 77.625 66 70.1875 C48.18 70.1875 30.36 70.1875 12 70.1875 C11.67 85.3675 11.34 100.5475 11 116.1875 C4.07 116.1875 -2.86 116.1875 -10 116.1875 C-11.1968567 113.7937866 -11.12321706 112.32928739 -11.12025452 109.65707397 C-11.12162918 108.70352524 -11.12300385 107.7499765 -11.12442017 106.76753235 C-11.12082489 105.71808945 -11.11722961 104.66864655 -11.11352539 103.58740234 C-11.11367142 102.48495682 -11.11381744 101.38251129 -11.1139679 100.24665833 C-11.11326912 96.58889829 -11.10547833 92.93118868 -11.09765625 89.2734375 C-11.09579195 86.74280831 -11.0943681 84.21217875 -11.09336853 81.68154907 C-11.08993557 75.69276544 -11.08204755 69.70400358 -11.07201904 63.71522868 C-11.06085033 56.8979022 -11.05534554 50.08057487 -11.05032361 43.26324153 C-11.03986475 29.23798426 -11.02227001 15.21274313 -11 1.1875 C-7.58173253 -0.52163373 -3.76645237 0.00291521 0 0 Z " fill="#FCFCFC" transform="translate(481,842.8125)"/>
<path d="M0 0 C1.23195602 -0.01283524 2.46391205 -0.02567047 3.73320007 -0.03889465 C5.07579137 -0.04706473 6.41838725 -0.05450794 7.76098633 -0.0612793 C8.44113611 -0.06535482 9.1212859 -0.06943035 9.82204628 -0.07362938 C13.42449256 -0.09445728 17.02690116 -0.10877124 20.62939453 -0.11816406 C24.33021728 -0.12920192 28.03043438 -0.16357988 31.73104382 -0.20333576 C34.59400974 -0.22961988 37.45683412 -0.2378664 40.31991005 -0.24144554 C42.34106168 -0.24861983 44.36211607 -0.275009 46.38310242 -0.30183411 C53.64143373 -0.28481523 59.69529145 0.14479243 65.90551758 4.17700195 C68.06176758 6.46606445 68.06176758 6.46606445 69.40551758 8.80200195 C70.10161133 9.96602539 70.10161133 9.96602539 70.81176758 11.15356445 C72.61830683 14.49566206 73.02513199 16.36409384 73.00317383 20.18481445 C72.99833984 21.66401367 72.99833984 21.66401367 72.9934082 23.1730957 C72.98083984 24.7219043 72.98083984 24.7219043 72.96801758 26.30200195 C72.96350586 27.34227539 72.95899414 28.38254883 72.9543457 29.4543457 C72.94253725 32.02858882 72.92460143 34.60280249 72.90551758 37.17700195 C65.97551758 37.17700195 59.04551758 37.17700195 51.90551758 37.17700195 C50.25866297 33.88329274 50.45157592 30.24698163 50.18676758 26.6105957 C50.16716836 24.2315689 50.16716836 24.2315689 48.90551758 23.17700195 C47.3400471 23.0837348 45.77038985 23.05954613 44.20214844 23.06347656 C42.70070534 23.06358986 42.70070534 23.06358986 41.16893005 23.06370544 C40.08040237 23.06886673 38.99187469 23.07402802 37.87036133 23.0793457 C36.20778038 23.08146812 36.20778038 23.08146812 34.51161194 23.08363342 C30.95538689 23.08925162 27.39922375 23.1018072 23.84301758 23.11450195 C21.43872161 23.11951461 19.03442466 23.12407792 16.63012695 23.12817383 C10.72190254 23.13922696 4.81371448 23.15598279 -1.09448242 23.17700195 C-1.11760809 32.15620973 -1.13539865 41.13540732 -1.14629459 50.11463833 C-1.15152293 54.28363023 -1.15861969 58.45260182 -1.16992188 62.62158203 C-1.1807525 66.64157881 -1.18675963 70.661556 -1.18935966 74.68156624 C-1.1912136 76.2186317 -1.19483361 77.75569605 -1.20021248 79.29275322 C-1.20742526 81.43835682 -1.20847327 83.5838785 -1.20800781 85.72949219 C-1.21133873 87.56482765 -1.21133873 87.56482765 -1.21473694 89.4372406 C-1.4073417 92.08928265 -1.4073417 92.08928265 -0.09448242 93.17700195 C1.50065651 93.29973044 3.1010669 93.35481238 4.70068359 93.38232422 C5.72166641 93.40226944 6.74264923 93.42221466 7.79457092 93.44276428 C8.90497238 93.45947678 10.01537384 93.47618927 11.15942383 93.4934082 C12.29000717 93.5141893 13.42059052 93.5349704 14.58543396 93.55638123 C18.21289743 93.62199992 21.84043591 93.68081872 25.46801758 93.73950195 C27.92049943 93.78267547 30.37297358 93.82628936 32.82543945 93.87036133 C38.85205442 93.97769384 44.87874515 94.07892617 50.90551758 94.17700195 C50.90551758 89.55700195 50.90551758 84.93700195 50.90551758 80.17700195 C54.32378505 78.46786822 58.1390652 78.99241716 61.90551758 78.98950195 C63.15461914 78.97113281 63.15461914 78.97113281 64.42895508 78.95239258 C65.62391602 78.94949219 65.62391602 78.94949219 66.84301758 78.9465332 C67.93936523 78.94036987 67.93936523 78.94036987 69.05786133 78.93408203 C70.90551758 79.17700195 70.90551758 79.17700195 72.90551758 81.17700195 C73.38586019 84.52971266 73.27592085 87.91881307 73.28051758 91.30200195 C73.30500977 92.22754883 73.32950195 93.1530957 73.35473633 94.10668945 C73.3810633 100.31985492 72.46304035 105.00299768 68.90551758 110.17700195 C63.85747788 115.09560473 59.16723664 116.42238641 52.22265625 116.4675293 C51.24597237 116.47760513 51.24597237 116.47760513 50.2495575 116.48788452 C48.10745506 116.50680546 45.96566701 116.51078585 43.82348633 116.51293945 C42.32521946 116.5193722 40.82695385 116.52610091 39.32868958 116.53311157 C36.19077647 116.54507007 33.05297333 116.54879395 29.91503906 116.54760742 C25.91033438 116.54740447 21.90634124 116.57468735 17.90180492 116.60915184 C14.80724401 116.63148211 11.71285258 116.63544308 8.61821938 116.63438797 C7.14273951 116.63673546 5.66725436 116.64551066 4.19185448 116.6610527 C-4.88353669 116.74769379 -11.97846587 116.60376391 -19.15307617 110.39575195 C-19.83563477 109.5449707 -19.83563477 109.5449707 -20.53198242 108.67700195 C-21.24161133 107.8262207 -21.24161133 107.8262207 -21.96557617 106.95825195 C-24.64834049 102.72523974 -24.24845788 97.99546879 -24.25561523 93.13891602 C-24.26058014 92.33188232 -24.26554504 91.52484863 -24.2706604 90.69335938 C-24.2852512 88.02643984 -24.29207941 85.35957983 -24.29760742 82.69262695 C-24.30336206 80.83420816 -24.30911975 78.97578938 -24.31488037 77.11737061 C-24.32538204 73.22025273 -24.33122995 69.32315542 -24.3347168 65.42602539 C-24.34019528 60.44507168 -24.36421303 55.46439217 -24.39268875 50.48352432 C-24.41136225 46.6435264 -24.41652327 42.80359386 -24.41805267 38.96355438 C-24.42106983 37.12803399 -24.42906658 35.29251449 -24.44223785 33.45703888 C-24.45939475 30.88203914 -24.45739463 28.30770056 -24.45092773 25.73266602 C-24.46014252 24.98225037 -24.4693573 24.23183472 -24.47885132 23.4586792 C-24.42787715 16.94172886 -23.01094251 11.5078318 -18.78198242 6.36450195 C-12.83573248 1.52453107 -7.49835606 0.06814818 0 0 Z " fill="#FCFCFC" transform="translate(750.094482421875,842.822998046875)"/>
<path d="M0 0 C1.3809116 -0.00643867 2.76182187 -0.0131678 4.14273071 -0.02017212 C7.02910522 -0.03210388 9.91536041 -0.03585714 12.80175781 -0.03466797 C16.47899922 -0.03446488 20.15546695 -0.06177397 23.83252525 -0.09621239 C26.68264195 -0.11857645 29.53257513 -0.12250265 32.38277054 -0.12144852 C34.39060455 -0.12491894 36.39838128 -0.14651733 38.40609741 -0.16854858 C46.64681282 -0.12759069 53.7975989 0.50964215 60.0078125 6.37109375 C60.45125 7.04011719 60.8946875 7.70914063 61.3515625 8.3984375 C62.04765625 9.40583984 62.04765625 9.40583984 62.7578125 10.43359375 C64.71863751 13.84402867 64.97147152 16.59167685 64.94921875 20.44140625 C64.94438477 21.91577148 64.94438477 21.91577148 64.93945312 23.41992188 C64.92688477 24.95616211 64.92688477 24.95616211 64.9140625 26.5234375 C64.90955078 27.55919922 64.90503906 28.59496094 64.90039062 29.66210938 C64.88860276 32.2200767 64.87066732 34.77801436 64.8515625 37.3359375 C57.9215625 37.3359375 50.9915625 37.3359375 43.8515625 37.3359375 C42.20470789 34.04222829 42.39762084 30.40591718 42.1328125 26.76953125 C42.11321328 24.39050445 42.11321328 24.39050445 40.8515625 23.3359375 C39.28609202 23.24267034 37.71643478 23.21848168 36.14819336 23.22241211 C34.64675026 23.22252541 34.64675026 23.22252541 33.11497498 23.22264099 C32.0264473 23.22780228 30.93791962 23.23296356 29.81640625 23.23828125 C28.1538253 23.24040367 28.1538253 23.24040367 26.45765686 23.24256897 C22.90143181 23.24818717 19.34526867 23.26074275 15.7890625 23.2734375 C13.38476653 23.27845016 10.98046958 23.28301347 8.57617188 23.28710938 C2.66794746 23.29816251 -3.2402406 23.31491833 -9.1484375 23.3359375 C-9.17156316 32.31514527 -9.18935373 41.29434287 -9.20024967 50.27357388 C-9.20547801 54.44256578 -9.21257476 58.61153737 -9.22387695 62.78051758 C-9.23470758 66.80051436 -9.24071471 70.82049155 -9.24331474 74.84050179 C-9.24516868 76.37756725 -9.24878869 77.91463159 -9.25416756 79.45168877 C-9.26138034 81.59729237 -9.26242834 83.74281405 -9.26196289 85.88842773 C-9.26529381 87.7237632 -9.26529381 87.7237632 -9.26869202 89.59617615 C-9.46129678 92.2482182 -9.46129678 92.2482182 -8.1484375 93.3359375 C-6.55329857 93.45866599 -4.95288818 93.51374793 -3.35327148 93.54125977 C-2.33228867 93.56120499 -1.31130585 93.58115021 -0.25938416 93.60169983 C0.8510173 93.61841232 1.96141876 93.63512482 3.10546875 93.65234375 C4.23605209 93.67312485 5.36663544 93.69390594 6.53147888 93.71531677 C10.15894235 93.78093547 13.78648083 93.83975427 17.4140625 93.8984375 C19.86654436 93.94161101 22.3190185 93.9852249 24.77148438 94.02929688 C30.79809934 94.13662938 36.82479007 94.23786172 42.8515625 94.3359375 C42.8515625 89.7159375 42.8515625 85.0959375 42.8515625 80.3359375 C45.20008778 79.16167486 46.58930315 79.22085577 49.203125 79.23828125 C50.47929688 79.24311523 50.47929688 79.24311523 51.78125 79.24804688 C52.67070313 79.25642578 53.56015625 79.26480469 54.4765625 79.2734375 C55.37375 79.27794922 56.2709375 79.28246094 57.1953125 79.28710938 C59.41412898 79.29891159 61.63281268 79.31537595 63.8515625 79.3359375 C65.76095841 83.15472931 65.16677162 87.75926906 65.2265625 91.9609375 C65.26394531 92.93417969 65.30132813 93.90742187 65.33984375 94.91015625 C65.42131044 101.63568399 64.33368091 106.19918975 59.8515625 111.3359375 C54.68415338 115.36651661 50.98065135 116.45676586 44.51928711 116.52880859 C42.5559568 116.55290298 42.5559568 116.55290298 40.55296326 116.57748413 C39.11995091 116.58897607 37.68693123 116.59958385 36.25390625 116.609375 C35.16798282 116.61736052 35.16798282 116.61736052 34.06012154 116.62550735 C30.2231159 116.65222638 26.38614255 116.67159931 22.54907227 116.68603516 C19.38796797 116.69933414 16.22751538 116.72711195 13.06665039 116.76806641 C9.23757816 116.81766998 5.40909355 116.84219039 1.57971382 116.84926224 C0.12817531 116.85593209 -1.32335231 116.87104165 -2.77470589 116.89515305 C-12.22996952 117.04318546 -20.49476638 116.44874651 -27.82240295 109.82211304 C-32.41968792 104.69461888 -32.30197655 99.92082083 -32.32543945 93.32958984 C-32.33201065 92.52576874 -32.33858185 91.72194763 -32.34535217 90.89376831 C-32.3650429 88.2364695 -32.37674022 85.57922719 -32.38671875 82.921875 C-32.39079428 82.01128956 -32.3948698 81.10070412 -32.39906883 80.16252518 C-32.41991459 75.33996052 -32.43422107 70.51742416 -32.44360352 65.69482422 C-32.4546466 60.73192038 -32.48902649 55.76946752 -32.52877522 50.80672264 C-32.55501755 46.97522186 -32.56330224 43.14382715 -32.56688499 39.31224442 C-32.57173365 37.48394358 -32.58329812 35.65564694 -32.60192299 33.82743454 C-32.78738351 14.41119291 -32.78738351 14.41119291 -28.1484375 7.3359375 C-20.2911795 -0.47986095 -10.43418735 0.01767761 0 0 Z " fill="#FCFCFC" transform="translate(633.1484375,842.6640625)"/>
<path d="M0 0 C9.20727922 4.12325982 14.56355066 14.37886466 18.14697266 23.40722656 C21.27021438 32.90030816 22.00154164 43.10927694 23 53 C23.11569336 54.07749512 23.23138672 55.15499023 23.35058594 56.26513672 C26.81281676 89.9268557 26.83974786 125.38545563 23 159 C22.86577637 160.17723633 22.73155273 161.35447266 22.59326172 162.56738281 C22.15725678 166.21669105 21.68289405 169.85830553 21.1875 173.5 C21.04666992 174.58071777 20.90583984 175.66143555 20.76074219 176.77490234 C19.28961063 186.62288425 16.47026622 196.31092313 9.4375 203.625 C8.69371094 204.42164063 7.94992187 205.21828125 7.18359375 206.0390625 C5.17426564 207.84350385 3.47253566 208.95716183 1 210 C0.67 209.67 0.34 209.34 0 209 C0.20773134 201.62086529 1.18090293 194.25901089 2.0534668 186.93408203 C3.74554324 172.35404125 4.56732487 157.78503643 5.1875 143.125 C5.25141434 141.66142059 5.25141434 141.66142059 5.31661987 140.16827393 C6.16506986 120.383859 6.24322198 100.60684675 5.6875 80.8125 C5.65823929 79.76870682 5.65823929 79.76870682 5.62838745 78.7038269 C4.987576 56.96956226 3.13616933 35.21380574 0.55883789 13.62524414 C0.02705929 9.04530812 -0.06647506 4.60211933 0 0 Z " fill="#1D303D" transform="translate(723,418)"/>
<path d="M0 0 C3.875 0.875 3.875 0.875 5 2 C5.12601739 4.81419747 5.18869294 7.60246886 5.203125 10.41796875 C5.20882507 11.26796951 5.21452515 12.11797028 5.22039795 12.99372864 C5.22986589 14.79862213 5.23638902 16.60353304 5.24023438 18.40844727 C5.24989872 21.1586783 5.28088734 23.90814902 5.3125 26.65820312 C5.31903402 28.41145389 5.32428292 30.16471002 5.328125 31.91796875 C5.3404718 32.73694138 5.3528186 33.555914 5.36553955 34.39970398 C5.34269615 40.31495754 4.22914301 44.50944363 0.16796875 49.046875 C-5.33455894 53.77883175 -9.37655887 56.27498087 -16.8125 56 C-23.2716719 55.19016425 -28.44921575 51.93958739 -32.69140625 47.05078125 C-36.07130434 41.75392604 -35.7248275 34.77708275 -34.57421875 28.78125 C-32.8747461 23.35961945 -29.78177828 20.00343099 -25 17 C-16.88914482 13.81359261 -10.77284893 14.7272215 -3 18 C-2.95101562 16.95199219 -2.90203125 15.90398437 -2.8515625 14.82421875 C-2.77651857 13.44528646 -2.70097143 12.0663815 -2.625 10.6875 C-2.5940625 9.99720703 -2.563125 9.30691406 -2.53125 8.59570312 C-2.31875081 4.93009211 -2.08066139 3.12099208 0 0 Z " fill="#FBFBFB" transform="translate(602,1056)"/>
<path d="M0 0 C0.9075 -0.01224609 1.815 -0.02449219 2.75 -0.03710938 C12.74317322 -0.05902423 12.74317322 -0.05902423 16.98046875 3.73828125 C21.35614485 9.02897809 23.76889032 12.97837531 23.56640625 20.1328125 C22.81329263 25.02340221 20.16817722 28.3736611 16.5 31.625 C15.7575 32.140625 15.015 32.65625 14.25 33.1875 C14.85326159 36.11659425 15.74163035 38.22888648 17.38671875 40.71875 C17.79857422 41.36457031 18.21042969 42.01039062 18.63476562 42.67578125 C19.50673393 44.02229903 20.38704076 45.36345179 21.27539062 46.69921875 C22.51171875 48.65625 22.51171875 48.65625 24.25 52.1875 C23.51953125 54.65625 23.51953125 54.65625 22.25 56.1875 C15.3807206 54.08855352 12.57905898 48.35242422 9 42.5 C8.63648438 41.91927734 8.27296875 41.33855469 7.8984375 40.74023438 C5.25 36.4340343 5.25 36.4340343 5.25 34.1875 C2.28 34.1875 -0.69 34.1875 -3.75 34.1875 C-3.78738281 35.60804687 -3.82476563 37.02859375 -3.86328125 38.4921875 C-3.92892562 40.34898542 -3.99537348 42.20575507 -4.0625 44.0625 C-4.08505859 44.99964844 -4.10761719 45.93679688 -4.13085938 46.90234375 C-4.16630859 47.79824219 -4.20175781 48.69414063 -4.23828125 49.6171875 C-4.26446533 50.44460449 -4.29064941 51.27202148 -4.31762695 52.12451172 C-4.75 54.1875 -4.75 54.1875 -7.75 56.1875 C-8.74 55.5275 -9.73 54.8675 -10.75 54.1875 C-11.11749268 51.94163513 -11.11749268 51.94163513 -11.10644531 49.11108398 C-11.10944641 48.05336288 -11.11244751 46.99564178 -11.11553955 45.90586853 C-11.10319275 44.76001785 -11.09084595 43.61416718 -11.078125 42.43359375 C-11.07625183 41.26240494 -11.07437866 40.09121613 -11.07244873 38.88453674 C-11.06571718 36.40549885 -11.05178103 33.92647178 -11.03125 31.44750977 C-11.00010164 27.63743304 -10.99028189 23.82776952 -10.984375 20.01757812 C-10.97520535 17.61457825 -10.9648297 15.21158261 -10.953125 12.80859375 C-10.94887512 11.66071884 -10.94462524 10.51284393 -10.94024658 9.33018494 C-10.93063904 8.275616 -10.92103149 7.22104706 -10.91113281 6.13452148 C-10.90430481 5.2012352 -10.89747681 4.26794891 -10.89044189 3.30638123 C-10.54932794 -1.84008842 -3.97116028 0.00277316 0 0 Z " fill="#FBFBFB" transform="translate(726.75,1055.8125)"/>
<path d="M0 0 C6.14219928 5.08925083 9.73166299 10.70996692 10.625 18.75 C10.32972347 25.11074867 7.44921726 29.95174056 2.8125 34.1875 C-2.64358033 38.42086466 -7.4270548 39.33248717 -14.2109375 38.4921875 C-19.79615459 37.03298664 -25.09806576 33.22546963 -28.8125 28.8125 C-30.95600889 22.99262411 -30.86789541 14.74547086 -28.75 8.9375 C-25.58678059 3.83553321 -22.00447483 0.76373436 -16.5 -1.625 C-10.75499404 -2.50135684 -5.3924868 -2.27682776 0 0 Z " fill="#FCFCFC" transform="translate(538.8125,1073.1875)"/>
<path d="M0 0 C1.32 0 2.64 0 4 0 C5.94251572 2.18687678 7.58158947 4.3024435 9.25 6.6875 C10.30480554 8.14278603 11.3608645 9.59716413 12.41796875 11.05078125 C12.98692871 11.84049316 13.55588867 12.63020508 14.14208984 13.44384766 C17.55208418 18.13539046 21.05786407 22.75398719 24.5625 27.375 C25.25311523 28.29627686 25.94373047 29.21755371 26.65527344 30.16674805 C27.63222168 31.45705933 27.63222168 31.45705933 28.62890625 32.7734375 C29.20713135 33.54091309 29.78535645 34.30838867 30.38110352 35.09912109 C32.04337993 37.22666216 32.04337993 37.22666216 35 39 C35.33 26.46 35.66 13.92 36 1 C37.65 0.67 39.3 0.34 41 0 C43.18971746 3.28457619 43.24583902 4.2175981 43.22705078 8.0222168 C43.22689972 9.04304855 43.22674866 10.06388031 43.22659302 11.11564636 C43.21627045 12.21572525 43.20594788 13.31580414 43.1953125 14.44921875 C43.1924826 15.5769722 43.18965271 16.70472565 43.18673706 17.86665344 C43.17552916 21.47370958 43.15042323 25.08051873 43.125 28.6875 C43.114971 31.13085579 43.10584501 33.57421547 43.09765625 36.01757812 C43.07558783 42.01180323 43.04210417 48.00588397 43 54 C41.68 54.66 40.36 55.32 39 56 C34.20305159 52.31003969 30.77664326 48.39540218 27.25 43.5 C26.20259135 42.07365415 25.15440205 40.64788125 24.10546875 39.22265625 C23.58645996 38.51383301 23.06745117 37.80500977 22.53271484 37.07470703 C20.25585773 33.99271726 17.91302796 30.96346702 15.5625 27.9375 C12.26021559 23.6853199 9.13557866 19.38981012 6 15 C5.67 27.87 5.34 40.74 5 54 C3.68 54.66 2.36 55.32 1 56 C0.01 55.34 -0.98 54.68 -2 54 C-2.3742218 51.79882812 -2.3742218 51.79882812 -2.37231445 49.03125 C-2.37854324 47.99677734 -2.38477203 46.96230469 -2.39118958 45.89648438 C-2.38197983 44.77564453 -2.37277008 43.65480469 -2.36328125 42.5 C-2.36377975 41.35337891 -2.36427826 40.20675781 -2.36479187 39.02539062 C-2.36244812 36.59763865 -2.35270204 34.1698844 -2.33618164 31.7421875 C-2.31259749 28.01540514 -2.31561759 24.28933794 -2.32226562 20.5625 C-2.31668897 18.20832905 -2.30957917 15.85416112 -2.30078125 13.5 C-2.30169266 12.37916016 -2.30260406 11.25832031 -2.30354309 10.10351562 C-2.29401108 9.06904297 -2.28447906 8.03457031 -2.2746582 6.96875 C-2.27005081 6.05544922 -2.26544342 5.14214844 -2.26069641 4.20117188 C-2 2 -2 2 0 0 Z " fill="#FBFBFB" transform="translate(445,1056)"/>
<path d="M0 0 C4.28766892 3.0906538 7.03691329 7.68796238 8.37109375 12.75 C8.68246402 14.99114185 8.93554284 16.97867743 8.70703125 19.23046875 C6.70703125 21.23046875 6.70703125 21.23046875 3.90966797 21.45751953 C2.74709473 21.4470459 1.58452148 21.43657227 0.38671875 21.42578125 C-1.49853516 21.41611328 -1.49853516 21.41611328 -3.421875 21.40625 C-4.74058594 21.38949219 -6.05929687 21.37273437 -7.41796875 21.35546875 C-8.75780596 21.34543858 -10.09765027 21.33631279 -11.4375 21.328125 C-14.72283448 21.3044895 -18.0078134 21.27154109 -21.29296875 21.23046875 C-18.68429448 26.64505852 -16.95000481 29.17019018 -11.29296875 31.23046875 C-6.12713038 31.853932 -3.55785542 31.07372653 0.70703125 28.23046875 C1.69703125 28.23046875 2.68703125 28.23046875 3.70703125 28.23046875 C4.36703125 29.88046875 5.02703125 31.53046875 5.70703125 33.23046875 C0.70112551 37.6474444 -3.41578819 39.5100684 -10.10546875 39.23046875 C-15.85217155 38.50127988 -19.9750099 36.00982385 -24.29296875 32.23046875 C-28.27500406 27.0040474 -28.89754511 21.69829513 -28.29296875 15.23046875 C-27.16486038 9.11384449 -25.10813043 5.16002508 -20.1171875 1.3828125 C-13.94794434 -2.51424688 -6.6742831 -3.20907968 0 0 Z " fill="#FBFBFB" transform="translate(655.29296875,1072.76953125)"/>
<path d="M0 0 C3.61000169 1.26282215 3.61000169 1.26282215 6.5 0 C11.74118388 -1.71346396 17.60202291 -1.56215233 22.65234375 0.84375 C26.71331882 3.90239789 29.19071504 8.18333276 30.75 12.9375 C31.21515813 17.28642695 31.13006454 21.57033278 31 25.9375 C30.98195313 27.09378906 30.96390625 28.25007813 30.9453125 29.44140625 C30.8984876 32.27431275 30.83292012 35.10545884 30.75 37.9375 C29.43 38.5975 28.11 39.2575 26.75 39.9375 C25.76 39.2775 24.77 38.6175 23.75 37.9375 C23.38110352 35.60253906 23.38110352 35.60253906 23.37890625 32.703125 C23.36150391 31.65382813 23.34410156 30.60453125 23.32617188 29.5234375 C23.31712138 27.31511657 23.31185824 25.10677659 23.31054688 22.8984375 C23.19203213 14.60244664 23.19203213 14.60244664 18.75 7.9375 C14.49825029 6.13630421 10.56355359 6.64166233 6.3125 8.1875 C3.54063225 9.84608345 3.54063225 9.84608345 1.75 12.9375 C1.43071436 15.61685892 1.43071436 15.61685892 1.44140625 18.62890625 C1.41626953 19.73814453 1.39113281 20.84738281 1.36523438 21.99023438 C1.33002028 24.33392817 1.2987832 26.67768502 1.27148438 29.02148438 C1.24505859 30.12943359 1.21863281 31.23738281 1.19140625 32.37890625 C1.17795166 33.39670166 1.16449707 34.41449707 1.15063477 35.46313477 C0.95232056 36.68794556 0.95232056 36.68794556 0.75 37.9375 C-0.24 38.5975 -1.23 39.2575 -2.25 39.9375 C-5.25 37.9375 -5.25 37.9375 -5.92919922 35.74658203 C-6.30292952 32.4740243 -6.37974536 29.28673769 -6.3828125 25.9921875 C-6.38376923 25.34049591 -6.38472595 24.68880432 -6.38571167 24.0173645 C-6.38638897 22.64748029 -6.38456624 21.2775928 -6.38037109 19.90771484 C-6.37499898 17.81210146 -6.38034018 15.71670069 -6.38671875 13.62109375 C-6.38605823 12.28645786 -6.3847776 10.95182211 -6.3828125 9.6171875 C-6.38168457 8.40788574 -6.38055664 7.19858398 -6.37939453 5.95263672 C-6.25 2.9375 -6.25 2.9375 -5.25 -0.0625 C-3.25 -1.0625 -3.25 -1.0625 0 0 Z " fill="#FBFBFB" transform="translate(832.25,1072.0625)"/>
<path d="M0 0 C2.28499594 3.42749392 2.21106133 4.57325973 2.1328125 8.5859375 C2.13539063 9.68164062 2.13796875 10.77734375 2.140625 11.90625 C2.13024251 14.21116275 2.09653736 16.51609306 2.0390625 18.8203125 C1.92337799 24.83935093 1.92337799 24.83935093 4.68945312 29.90332031 C8.22310324 32.23552939 10.98698375 33.34457644 15.25 33 C18.8190361 32.04825704 20.44976633 31.56097368 23 29 C23.5948526 26.25100451 23.5948526 26.25100451 23.50390625 23.125 C23.52259766 21.97515625 23.54128906 20.8253125 23.56054688 19.640625 C23.56119141 18.43921875 23.56183594 17.2378125 23.5625 16 C23.57141932 13.6249136 23.5929643 11.24983118 23.62890625 8.875 C23.62963135 7.82054687 23.63035645 6.76609375 23.63110352 5.6796875 C24.04311539 2.68680704 24.64404751 1.80717797 27 0 C28.32 0.66 29.64 1.32 31 2 C31.07403712 7.23271569 31.12854783 12.46512801 31.16479492 17.69824219 C31.17990173 19.47922067 31.20038835 21.26016184 31.22631836 23.04101562 C31.26261943 25.59774978 31.27970688 28.1539931 31.29296875 30.7109375 C31.30845261 31.50994476 31.32393646 32.30895203 31.33988953 33.13217163 C31.34057617 35.37646484 31.34057617 35.37646484 31 39 C30.01 39.66 29.02 40.32 28 41 C27.01 40.34 26.02 39.68 25 39 C22.99234701 39.2359886 22.99234701 39.2359886 20.875 39.9375 C14.96077249 41.38256206 9.98425584 41.60187755 4.50390625 38.66015625 C-3.50282741 33.42054974 -3.50282741 33.42054974 -4.61230469 30.25048828 C-5.48382459 25.19150186 -5.22795925 19.99396439 -5.25 14.875 C-5.270625 13.66972656 -5.29125 12.46445313 -5.3125 11.22265625 C-5.31765625 10.07410156 -5.3228125 8.92554688 -5.328125 7.7421875 C-5.3374707 6.6888623 -5.34681641 5.63553711 -5.35644531 4.55029297 C-5.23881836 3.70869629 -5.12119141 2.86709961 -5 2 C-2 0 -2 0 0 0 Z " fill="#FBFBFB" transform="translate(773,1071)"/>
<path d="M0 0 C3.54879852 3.05590984 5.76067804 6.37720933 6.63671875 10.9609375 C6.9220968 16.09774243 5.54623542 19.10673992 2.25 22.9375 C-1.11548729 25.74207274 -4.20861797 26.58486482 -8.62109375 26.42578125 C-13.32813201 25.34618532 -17.41274043 22.04560028 -19.9765625 18.00390625 C-21.38935554 14.22932283 -20.86520163 10.75097683 -19.75 6.9375 C-15.12525841 -0.52578059 -8.4528821 -3.26588627 0 0 Z " fill="#000103" transform="translate(535.75,1079.0625)"/>
<path d="M0 0 C3.86422405 2.26813151 6.28926786 4.85822744 8 9 C8.6289509 13.12619434 8.97167571 17.11448641 7.015625 20.91015625 C3.67928407 25.10117711 0.93504822 26.73951274 -4.25 27.4375 C-9.0558367 26.87681905 -12.27629726 25.03888384 -16 22 C-18.84135058 17.73797413 -18.50481963 14.00011825 -18 9 C-14.93009417 1.15468509 -7.87318069 -1.44074841 0 0 Z " fill="#000102" transform="translate(592,1078)"/>
<path d="M0 0 C1.24394531 -0.03738281 2.48789062 -0.07476563 3.76953125 -0.11328125 C7.1875 0.3125 7.1875 0.3125 9.51171875 2.14453125 C12.88145256 6.50397709 13.76166655 8.76222332 13.1875 14.3125 C11.39187595 17.06579021 10.13495078 18.83877461 7.1875 20.3125 C4.8349616 20.4094531 2.4795305 20.4422905 0.125 20.4375 C-1.14472656 20.44007812 -2.41445313 20.44265625 -3.72265625 20.4453125 C-6.8125 20.3125 -6.8125 20.3125 -7.8125 19.3125 C-7.9108721 17.98206375 -7.94328592 16.64656656 -7.9453125 15.3125 C-7.94660156 14.508125 -7.94789063 13.70375 -7.94921875 12.875 C-7.94535156 12.029375 -7.94148437 11.18375 -7.9375 10.3125 C-7.94136719 9.466875 -7.94523438 8.62125 -7.94921875 7.75 C-7.94792969 6.945625 -7.94664062 6.14125 -7.9453125 5.3125 C-7.94418457 4.57 -7.94305664 3.8275 -7.94189453 3.0625 C-7.62874951 -1.17263868 -3.36727982 0.0658891 0 0 Z " fill="#010305" transform="translate(729.8125,1062.6875)"/>
<path d="M0 0 C2.48032714 2.38633579 4.25772298 5.04340869 6 8 C5.67 8.66 5.34 9.32 5 10 C-1.6 10 -8.2 10 -15 10 C-15.33 9.01 -15.66 8.02 -16 7 C-11.87599445 1.27221452 -7.31066857 -1.99632193 0 0 Z " fill="#060A0E" transform="translate(651,1078)"/>
</svg>
